<?xml version="1.0" standalone="no"?>
<!DOCTYPE svg PUBLIC "-//W3C//DTD SVG 20010904//EN"
 "http://www.w3.org/TR/2001/REC-SVG-20010904/DTD/svg10.dtd">
<svg version="1.0" xmlns="http://www.w3.org/2000/svg"
 width="1588.000000pt" height="1589.000000pt" viewBox="0 0 1588.000000 1589.000000"
 preserveAspectRatio="xMidYMid meet">

<g transform="translate(0.000000,1589.000000) scale(0.100000,-0.100000)"
fill="#000000" stroke="none">
<path d="M5125 11935 c-153 -19 -378 -77 -482 -125 -24 -11 -45 -20 -48 -20
-3 0 -52 -23 -107 -51 -112 -56 -246 -142 -353 -228 -360 -287 -623 -731 -699
-1179 -35 -208 -37 -332 -34 -1967 4 -1609 4 -1610 26 -1732 66 -366 202 -663
434 -946 314 -383 790 -641 1288 -697 66 -8 1070 -10 3290 -7 1757 3 3213 6
3235 9 22 2 47 6 55 10 8 3 51 12 95 18 44 7 85 15 90 19 6 4 45 16 88 26 42
11 77 22 77 26 0 4 17 10 37 14 21 4 47 12 58 18 11 6 24 10 29 9 5 -2 12 1
15 6 3 5 44 28 91 50 93 46 105 53 167 94 23 15 46 28 52 28 6 0 11 4 11 9 0
5 14 16 31 25 93 47 379 329 453 448 11 18 23 35 26 38 11 11 48 67 65 100 10
19 21 37 24 40 3 3 15 24 26 47 11 24 23 43 26 43 4 0 12 20 19 45 7 25 17 45
23 45 6 0 7 3 4 6 -3 4 0 16 8 28 8 11 15 27 15 36 0 8 7 28 15 44 8 15 13 32
10 36 -3 5 -1 11 4 14 5 3 15 30 21 58 7 29 16 55 21 58 4 3 15 59 24 125 10
66 22 131 29 144 17 37 16 3515 -1 3533 -7 6 -13 25 -13 42 0 44 -32 216 -40
216 -4 0 -10 18 -14 39 -3 22 -11 52 -18 68 -6 15 -12 33 -13 38 0 6 -7 24
-14 40 -7 17 -15 42 -18 58 -3 15 -10 27 -15 27 -5 0 -7 4 -4 9 4 5 3 11 -1
13 -10 4 -83 151 -83 166 0 7 -5 12 -10 12 -6 0 -15 12 -20 26 -6 14 -21 40
-35 58 -14 18 -25 38 -25 44 0 7 -5 12 -10 12 -6 0 -14 8 -17 18 -26 70 -417
462 -461 462 -6 0 -12 7 -16 15 -3 8 -11 15 -17 15 -6 0 -32 15 -58 33 -25 19
-73 47 -106 63 -33 15 -62 31 -65 35 -3 3 -22 12 -42 20 -21 7 -38 17 -38 22
0 4 -4 6 -9 2 -5 -3 -12 -1 -15 3 -3 5 -26 15 -51 22 -25 7 -48 17 -51 22 -3
4 -9 6 -14 3 -4 -3 -21 2 -36 10 -16 8 -36 15 -44 15 -8 0 -27 6 -42 14 -15 8
-76 22 -135 31 -59 9 -117 22 -128 28 -31 18 -6427 20 -6580 2z m3026 -1694
c18 -22 19 -49 19 -722 l0 -699 659 0 c613 0 660 -1 680 -17 19 -17 21 -28 22
-170 0 -84 -2 -157 -5 -162 -17 -27 -101 -31 -718 -31 l-638 0 0 -660 0 -659
-22 -21 c-20 -18 -35 -20 -164 -20 -125 0 -145 2 -165 19 l-24 19 -5 661 -5
662 -675 -1 c-430 0 -688 4 -712 10 -20 6 -39 18 -43 28 -4 9 -6 82 -5 162 1
137 2 146 23 162 20 16 74 18 720 18 l697 0 1 688 c1 378 4 698 8 712 12 43
43 51 194 48 132 -3 140 -4 158 -27z"/>
</g>
</svg>
