<?xml version="1.0" standalone="no"?>
<!DOCTYPE svg PUBLIC "-//W3C//DTD SVG 20010904//EN"
 "http://www.w3.org/TR/2001/REC-SVG-20010904/DTD/svg10.dtd">
<svg version="1.0" xmlns="http://www.w3.org/2000/svg"
 width="2048.000000pt" height="2049.000000pt" viewBox="0 0 2048.000000 2049.000000"
 preserveAspectRatio="xMidYMid meet">

<g transform="translate(0.000000,2049.000000) scale(0.100000,-0.100000)"
fill="#000000" stroke="none">
<path d="M9830 20480 c-2201 -95 -4252 -859 -5969 -2223 -490 -390 -1026 -911
-1447 -1407 -866 -1020 -1550 -2267 -1949 -3550 -553 -1781 -610 -3695 -165
-5505 610 -2478 2136 -4646 4275 -6072 370 -247 735 -455 1160 -664 526 -258
986 -440 1530 -605 145 -45 471 -134 487 -134 4 0 8 1530 8 3400 l0 3400
-1055 0 -1055 0 0 1565 0 1565 1055 0 1055 0 0 743 c0 984 15 1338 75 1803
212 1642 896 2739 2085 3343 574 292 1247 464 2100 536 256 22 883 31 1140 16
517 -30 1072 -92 1480 -166 169 -31 320 -65 343 -77 16 -8 17 -84 15 -1426
l-3 -1417 -30 3 c-298 27 -1264 42 -1520 23 -1241 -91 -1790 -577 -1930 -1711
-23 -190 -35 -559 -35 -1142 l0 -528 1676 0 c1337 0 1675 -3 1672 -13 -3 -6
-132 -711 -289 -1564 l-284 -1553 -1387 0 -1388 0 0 -3515 c0 -2845 2 -3515
13 -3515 17 0 276 37 397 56 2071 333 4009 1316 5519 2799 770 757 1403 1608
1901 2555 1136 2164 1456 4684 899 7085 -360 1552 -1109 3042 -2143 4265 -344
407 -813 876 -1226 1226 -441 374 -1003 768 -1515 1061 -1371 786 -2886 1236
-4485 1333 -243 15 -776 20 -1010 10z"/>
</g>
</svg>
