<?xml version="1.0" encoding="UTF-8"?>
<svg version="1.1" xmlns="http://www.w3.org/2000/svg" width="548" height="640">
<path d="M0 0 C34.32 0 68.64 0 104 0 C104.66 5.28 105.32 10.56 106 16 C106.66 16 107.32 16 108 16 C108 18.31 108 20.62 108 23 C114.6 23 121.2 23 128 23 C129.31249528 25.62499056 129.42784943 27.96247755 129.75390625 30.8828125 C129.95209961 32.63271484 129.95209961 32.63271484 130.15429688 34.41796875 C130.28900391 35.64128906 130.42371094 36.86460938 130.5625 38.125 C130.70107422 39.35605469 130.83964844 40.58710937 130.98242188 41.85546875 C131.32500561 44.90328268 131.6640463 47.95144931 132 51 C132.66 51 133.32 51 134 51 C134.06058594 51.74765625 134.12117188 52.4953125 134.18359375 53.265625 C134.30927734 54.74289063 134.30927734 54.74289063 134.4375 56.25 C134.51871094 57.22453125 134.59992188 58.1990625 134.68359375 59.203125 C135.04076698 62.36036 135.46090587 65.02289189 137 67.8125 C138.37398902 70.81810099 138.60521336 73.72891068 139 77 C139.3274322 79.00097458 139.65876419 81.00133314 140 83 C140.66 83 141.32 83 142 83 C142 84.65 142 86.3 142 88 C142.66 88 143.32 88 144 88 C145.75421817 91.73724741 146.9416527 94.56968865 147.5 98.6875 C148.03357134 102.22241015 148.65970586 103.39967317 151 106 C154.49066382 110.19745112 157.29907342 114.61935098 160.12109375 119.28125 C164.01536856 124.91620897 168.5375372 128.22043917 174.4375 131.4375 C175.49855957 132.02108276 175.49855957 132.02108276 176.58105469 132.61645508 C194.92048283 142.5438101 214.38728906 148.26230292 235 151 C235.77053711 151.10296387 236.54107422 151.20592773 237.33496094 151.31201172 C241.88663563 151.91201382 246.43998421 152.46108904 251 153 C251.33 160.59 251.66 168.18 252 176 C258.93 176.99 265.86 177.98 273 179 C273 213.98 273 248.96 273 285 C251.80480666 283.82248926 251.80480666 283.82248926 242.375 282.3125 C241.28018311 282.13879883 240.18536621 281.96509766 239.05737305 281.78613281 C201.77521487 275.60235839 157.54104858 262.54104858 130 235 C129.99365209 236.65761667 129.99365209 236.65761667 129.98717594 238.34872055 C129.88371249 265.31075933 129.77493104 292.27277272 129.66066074 319.23476791 C129.60552071 332.27369081 129.55207166 345.31261644 129.50268555 358.3515625 C129.45960682 369.72407279 129.41327168 381.0965645 129.36312145 392.46904588 C129.33670979 398.48358697 129.31186408 404.49812484 129.29092598 410.51268768 C129.27111285 416.18925783 129.24690181 421.86579323 129.21950912 427.5423317 C129.21026743 429.61089817 129.20254807 431.67947218 129.19658089 433.74805069 C129.16418814 444.65427152 128.97510408 455.51879555 128.34525925 466.40870643 C128.14299936 469.91169221 128.00007651 473.37027271 128.00080204 476.88171005 C128.00006278 479.75590154 127.67494776 482.21584051 127 485 C126.34 485 125.68 485 125 485 C124.93941406 485.556875 124.87882812 486.11375 124.81640625 486.6875 C124.64052857 488.28933983 124.46196117 489.89088576 124.28125 491.4921875 C124.1078517 493.03832238 123.93998934 494.58510391 123.78125 496.1328125 C123.28701879 500.63384677 122.34439752 504.69792795 121 509 C120.34 509 119.68 509 119 509 C118.68680856 510.39567835 118.37448212 511.79155082 118.0625 513.1875 C117.87816406 514.00863281 117.69382812 514.82976563 117.50390625 515.67578125 C117.12991298 517.40078897 116.80243162 519.1360182 116.5 520.875 C116 523 116 523 114 526 C112.87507156 528.01124241 112.87507156 528.01124241 112.5625 530.5 C112 533 112 533 110 535 C108.18499649 538.17625614 107.10642501 541.52266426 106 545 C105.34 545 104.68 545 104 545 C103.93039062 545.82886719 103.86078125 546.65773438 103.7890625 547.51171875 C102.78894132 551.93304653 100.82765736 555.04700759 98.375 558.8125 C97.92640625 559.5144751 97.4778125 560.2164502 97.015625 560.93969727 C87.89163637 575.05418181 87.89163637 575.05418181 84 577 C83.566875 577.9590625 83.566875 577.9590625 83.125 578.9375 C82 581 82 581 79.9375 582 C79.298125 582.33 78.65875 582.66 78 583 C77.85691406 583.84498047 77.85691406 583.84498047 77.7109375 584.70703125 C76.64423206 588.14744934 74.20193239 590.23161843 71.6875 592.6875 C71.20087891 593.18572266 70.71425781 593.68394531 70.21289062 594.19726562 C67.55370323 596.8349791 65.67637084 598.31429488 62 599 C61.505 599.825 61.01 600.65 60.5 601.5 C59 604 59 604 56.8125 604.8125 C55.9153125 604.9053125 55.9153125 604.9053125 55 605 C55 605.66 55 606.32 55 607 C54.43796875 607.10441406 53.8759375 607.20882812 53.296875 607.31640625 C50.57619529 608.12613235 48.60742193 609.36203338 46.25 610.9375 C45.45078125 611.46214844 44.6515625 611.98679687 43.828125 612.52734375 C43.22484375 613.01332031 42.6215625 613.49929688 42 614 C42 614.66 42 615.32 42 616 C41.33226562 616.07992187 40.66453125 616.15984375 39.9765625 616.2421875 C36.07471861 617.23557033 32.850424 619.15951009 29.375 621.125 C13.82766965 629.58388186 -2.6690773 634.61093384 -20 638 C-21.38892456 638.27928345 -21.38892456 638.27928345 -22.8059082 638.56420898 C-32.97997887 640.38301451 -43.13420583 640.43896422 -53.4375 640.4375 C-54.38009674 640.43889984 -55.32269348 640.44029968 -56.29385376 640.44174194 C-78.74260051 640.41445311 -100.85684991 638.01567779 -122 630 C-123.22847656 629.54882812 -124.45695313 629.09765625 -125.72265625 628.6328125 C-135.13704413 625.08142994 -144.10935602 620.69498302 -153 616 C-153.89501221 615.53255371 -153.89501221 615.53255371 -154.80810547 615.05566406 C-163.03960568 610.7160447 -170.3780369 605.70049142 -177.671875 599.94824219 C-178.30867188 599.45098633 -178.94546875 598.95373047 -179.6015625 598.44140625 C-180.16182129 597.99482666 -180.72208008 597.54824707 -181.29931641 597.08813477 C-182.9680398 595.87276951 -182.9680398 595.87276951 -185.08740234 595.59741211 C-187 595 -187 595 -188.01416016 593.18994141 C-188.3394873 592.46726074 -188.66481445 591.74458008 -189 591 C-190.20894203 589.60959683 -191.47277291 588.26594074 -192.7734375 586.9609375 C-193.5159375 586.21585938 -194.2584375 585.47078125 -195.0234375 584.703125 C-195.79945313 583.93484375 -196.57546875 583.1665625 -197.375 582.375 C-198.52742188 581.21097656 -198.52742188 581.21097656 -199.703125 580.0234375 C-200.44820313 579.2809375 -201.19328125 578.5384375 -201.9609375 577.7734375 C-202.97873291 576.75902588 -202.97873291 576.75902588 -204.01708984 575.72412109 C-205.91035358 573.92358211 -205.91035358 573.92358211 -208.18994141 572.95166016 C-210 572 -210 572 -211 569 C-212.64302953 567.31002677 -214.31471312 565.64783606 -216 564 C-217.00967777 562.82071757 -218.00941109 561.63286181 -219 560.4375 C-222.03058738 556.8551903 -225.34440938 554.10372708 -229.25 551.5 C-231 550 -231 550 -231.5 547.9375 C-231.665 547.298125 -231.83 546.65875 -232 546 C-232.66 545.67 -233.32 545.34 -234 545 C-234.66 544.67 -235.32 544.34 -236 544 C-236.36162029 542.67405895 -236.69728039 541.34061543 -237 540 C-237.99 539.67 -238.98 539.34 -240 539 C-241.76966699 536.61327807 -243.40147201 534.2465246 -245 531.75 C-245.43828125 531.08097656 -245.8765625 530.41195312 -246.328125 529.72265625 C-252.83747876 519.74295426 -252.83747876 519.74295426 -253.4375 517 C-253.90227406 514.7903728 -253.90227406 514.7903728 -255.9375 512.8125 C-258.66787879 509.08925619 -259.25629341 505.4915964 -260 501 C-260.66 501 -261.32 501 -262 501 C-262.12117188 500.31292969 -262.24234375 499.62585938 -262.3671875 498.91796875 C-262.53476562 498.01691406 -262.70234375 497.11585938 -262.875 496.1875 C-263.11863281 494.84751953 -263.11863281 494.84751953 -263.3671875 493.48046875 C-263.91188449 490.77272154 -263.91188449 490.77272154 -266 488 C-267.0013988 484.99580359 -267.51421457 482.12290635 -268 479 C-268.66 479 -269.32 479 -270 479 C-270.55609703 475.26620566 -271.05601444 471.54384972 -271.43920898 467.78833008 C-271.77185059 464.74847066 -272.18964841 461.75307487 -272.73852539 458.74487305 C-274.99261832 446.38743452 -275.5198175 434.35652193 -275.4375 421.8125 C-275.43445862 420.82620605 -275.43141724 419.83991211 -275.42828369 418.82373047 C-275.36019885 403.8753244 -274.70497247 389.55286485 -271 375 C-270.77505859 374.09507812 -270.55011719 373.19015625 -270.31835938 372.2578125 C-267.63881384 361.71679041 -264.27616392 351.52531867 -260.19921875 341.4453125 C-258.88235903 338.07549491 -258.88235903 338.07549491 -258.6328125 334.66015625 C-257.76721329 329.65357316 -255.59574172 325.74655879 -253.1875 321.3125 C-252.52911133 320.05083008 -252.52911133 320.05083008 -251.85742188 318.76367188 C-249.60421474 314.54183799 -247.47178491 311.33135316 -244 308 C-243.62346097 306.67821815 -243.28957342 305.34351633 -243 304 C-241.66015625 301.89453125 -241.66015625 301.89453125 -240.0625 299.8125 C-239.53785156 299.11769531 -239.01320312 298.42289062 -238.47265625 297.70703125 C-237 296 -237 296 -235 295 C-234.67 294.01 -234.34 293.02 -234 292 C-233.34 291.67 -232.68 291.34 -232 291 C-231.71125 290.360625 -231.4225 289.72125 -231.125 289.0625 C-230 287 -230 287 -227.9375 286 C-227.298125 285.67 -226.65875 285.34 -226 285 C-225.87625 284.38125 -225.7525 283.7625 -225.625 283.125 C-224.64241473 279.78421007 -221.85153476 278.88308899 -219 277 C-215.97712014 273.8988809 -213.40043222 270.60064833 -211 267 C-210.360625 266.87625 -209.72125 266.7525 -209.0625 266.625 C-206.71976953 266.1670814 -206.71976953 266.1670814 -205.5 263.5 C-204 261 -204 261 -202.140625 260.49609375 C-201.43421875 260.33238281 -200.7278125 260.16867187 -200 260 C-198.05473595 258.90641499 -198.05473595 258.90641499 -196.25 257.5625 C-195.32960937 256.91474609 -195.32960937 256.91474609 -194.390625 256.25390625 C-193.93171875 255.84011719 -193.4728125 255.42632812 -193 255 C-193 254.34 -193 253.68 -193 253 C-192.41621582 252.87633057 -191.83243164 252.75266113 -191.23095703 252.62524414 C-188.98305652 251.99525145 -187.31266501 251.17373411 -185.3046875 249.99609375 C-184.59852295 249.58907227 -183.8923584 249.18205078 -183.16479492 248.76269531 C-182.03134644 248.10672363 -182.03134644 248.10672363 -180.875 247.4375 C-153.10429758 231.78047745 -123.74861131 223.81141402 -91.8190918 223.81469727 C-89.46709629 223.81252731 -87.11558379 223.79436759 -84.76367188 223.77539062 C-59.6344119 223.68279405 -59.6344119 223.68279405 -53 227 C-53 233.93 -53 240.86 -53 248 C-51.35 248 -49.7 248 -48 248 C-48 248.66 -48 249.32 -48 250 C-46.78441406 250.13277344 -45.56882813 250.26554688 -44.31640625 250.40234375 C-42.73174516 250.58050091 -41.1471111 250.75889875 -39.5625 250.9375 C-38.35883789 251.06801758 -38.35883789 251.06801758 -37.13085938 251.20117188 C-31.11328125 251.88671875 -31.11328125 251.88671875 -30 253 C-29.90434877 254.4674896 -29.87811691 255.93956884 -29.87974548 257.41017151 C-29.87768349 258.83843262 -29.87768349 258.83843262 -29.87557983 260.29554749 C-29.87917511 261.34858566 -29.88277039 262.40162384 -29.88647461 263.48657227 C-29.88632858 264.58887177 -29.88618256 265.69117126 -29.8860321 266.82687378 C-29.88673179 270.49007092 -29.89452676 274.15321794 -29.90234375 277.81640625 C-29.90420773 280.34846468 -29.90563173 282.88052348 -29.90663147 285.4125824 C-29.91006654 291.40848249 -29.91795731 297.40436089 -29.92798096 303.40025228 C-29.93914323 310.22481058 -29.94465283 317.04936972 -29.94967639 323.87393486 C-29.96013996 337.91596664 -29.9777387 351.95798233 -30 366 C-31.62917358 365.89498169 -31.62917358 365.89498169 -33.29125977 365.7878418 C-34.73713878 365.69575133 -36.18302112 365.60371308 -37.62890625 365.51171875 C-38.69896912 365.44253235 -38.69896912 365.44253235 -39.79064941 365.37194824 C-68.05667416 363.58152363 -93.80494592 368.70140108 -116.0234375 386.921875 C-118.08355154 389.0878447 -118.47656867 390.14547335 -119 393 C-120.31337396 394.0260734 -121.64664105 395.02727325 -123 396 C-123.33 396.99 -123.66 397.98 -124 399 C-124.66 399.33 -125.32 399.66 -126 400 C-126.33 400.99 -126.66 401.98 -127 403 C-127.66 403 -128.32 403 -129 403 C-129.10183594 403.82757813 -129.20367187 404.65515625 -129.30859375 405.5078125 C-130.10944016 409.55276553 -131.47920255 413.08390263 -133.0625 416.875 C-133.34416016 417.56335938 -133.62582031 418.25171875 -133.91601562 418.9609375 C-134.60515266 420.64289909 -135.30180798 422.32177697 -136 424 C-136.66 424 -137.32 424 -138 424 C-142.22507131 444.09423797 -141.90520544 462.23039919 -136 482 C-135.34 482 -134.68 482 -134 482 C-133.75765625 482.68707031 -133.5153125 483.37414062 -133.265625 484.08203125 C-132.93046875 484.98308594 -132.5953125 485.88414062 -132.25 486.8125 C-131.92515625 487.70582031 -131.6003125 488.59914063 -131.265625 489.51953125 C-128.04638227 495.82884955 -120.27696265 497.76117087 -114 500 C-90.40928783 507.60199664 -65.6712226 505.55715043 -43.6484375 494.390625 C-42.77445313 493.93171875 -41.90046875 493.4728125 -41 493 C-41 492.34 -41 491.68 -41 491 C-39.9790625 490.938125 -39.9790625 490.938125 -38.9375 490.875 C-34.77917734 489.6363507 -31.93529751 487.1571084 -29 484 C-28.3233274 482.67171674 -27.65580488 481.33870915 -27 480 C-25.37064759 478.62131719 -23.70250393 477.28725907 -22 476 C-19.62112149 473.87600133 -19.0446753 473.13402591 -18 470 C-17.34 469.67 -16.68 469.34 -16 469 C-15.690625 468.21625 -15.38125 467.4325 -15.0625 466.625 C-13.98963381 463.97438941 -12.96858748 462.96858748 -11 461 C-10.39938767 459.09821215 -10.39938767 459.09821215 -10 457 C-9.3530635 455.3255761 -8.69040574 453.65697379 -8 452 C-7.34 452 -6.68 452 -6 452 C-5.34411163 448.58518717 -4.702244 445.16787104 -4.0625 441.75 C-3.88009766 440.80125 -3.69769531 439.8525 -3.50976562 438.875 C-3.24389648 437.44414063 -3.24389648 437.44414063 -2.97265625 435.984375 C-2.81031494 435.12553711 -2.64797363 434.26669922 -2.48071289 433.38183594 C-0.93523513 422.50933317 -0.84793887 411.64424267 -0.84178162 400.68804932 C-0.83720784 398.95352496 -0.83220664 397.21900168 -0.82681805 395.48447967 C-0.81332042 390.74573639 -0.80584305 386.00700023 -0.79939139 381.26824284 C-0.79135037 376.14774308 -0.77766546 371.02725797 -0.76467896 365.9067688 C-0.74296849 357.04429841 -0.72480428 348.18182651 -0.70907402 339.31934357 C-0.68632577 326.50580595 -0.65818991 313.69228458 -0.62875474 300.87876078 C-0.58113945 280.08780084 -0.53785891 259.29683423 -0.49731445 238.50585938 C-0.45792863 218.31379682 -0.41649504 198.12174016 -0.37231445 177.9296875 C-0.36822804 176.0615703 -0.36822804 176.0615703 -0.36405908 174.15571335 C-0.3503791 167.9076191 -0.33665892 161.65952495 -0.32291877 155.41143084 C-0.20904927 103.60763217 -0.10301934 51.80382161 0 0 Z M133 57 C134 61 134 61 134 61 Z M136 70 C137 73 137 73 137 73 Z M137 74 C138 76 138 76 138 76 Z M143 91 C144 93 144 93 144 93 Z M-136 416 C-135 418 -135 418 -135 418 Z M-270 472 C-269 475 -269 475 -269 475 Z M126 473 C126 474.98 126 476.96 126 479 C126.33 479 126.66 479 127 479 C127 477.02 127 475.04 127 473 C126.67 473 126.34 473 126 473 Z M-134 487 C-133 489 -133 489 -133 489 Z M122 495 C123 498 123 498 123 498 Z M-262 496 C-261 498 -261 498 -261 498 Z M121 499 C122 502 122 502 122 502 Z M120 502 C121 505 121 505 121 505 Z M115 518 C116 520 116 520 116 520 Z M114 521 C115 523 115 523 115 523 Z " fill="#000000" transform="translate(275,0)"/>
<path d="M0 0 C21 2 21 2 25 3 C25 37.98 25 72.96 25 109 C3.80480666 107.82248926 3.80480666 107.82248926 -5.625 106.3125 C-6.71981689 106.13879883 -7.81463379 105.96509766 -8.94262695 105.78613281 C-46.22478513 99.60235839 -90.45895142 86.54104858 -118 59 C-118.00423194 60.10507778 -118.00846388 61.21015556 -118.01282406 62.34872055 C-118.11628751 89.31075933 -118.22506896 116.27277272 -118.33933926 143.23476791 C-118.39447929 156.27369081 -118.44792834 169.31261644 -118.49731445 182.3515625 C-118.54039318 193.72407279 -118.58672832 205.0965645 -118.63687855 216.46904588 C-118.66329021 222.48358697 -118.68813592 228.49812484 -118.70907402 234.51268768 C-118.72888715 240.18925783 -118.75309819 245.86579323 -118.78049088 251.5423317 C-118.78973257 253.61089817 -118.79745193 255.67947218 -118.80341911 257.74805069 C-118.83581186 268.65427152 -119.02489592 279.51879555 -119.65474075 290.40870643 C-119.85700064 293.91169221 -119.99992349 297.37027271 -119.99919796 300.88171005 C-119.99993722 303.75590154 -120.32505224 306.21584051 -121 309 C-121.66 309 -122.32 309 -123 309 C-123.06058594 309.556875 -123.12117188 310.11375 -123.18359375 310.6875 C-123.35947143 312.28933983 -123.53803883 313.89088576 -123.71875 315.4921875 C-123.8921483 317.03832238 -124.06001066 318.58510391 -124.21875 320.1328125 C-124.71298121 324.63384677 -125.65560248 328.69792795 -127 333 C-127.66 333 -128.32 333 -129 333 C-129.31319144 334.39567835 -129.62551788 335.79155082 -129.9375 337.1875 C-130.21400391 338.41919922 -130.21400391 338.41919922 -130.49609375 339.67578125 C-130.87008702 341.40078897 -131.19756838 343.1360182 -131.5 344.875 C-132 347 -132 347 -134 350 C-135.12492844 352.01124241 -135.12492844 352.01124241 -135.4375 354.5 C-136 357 -136 357 -138 359 C-139.81500351 362.17625614 -140.89357499 365.52266426 -142 369 C-142.66 369 -143.32 369 -144 369 C-144.06960938 369.82886719 -144.13921875 370.65773438 -144.2109375 371.51171875 C-145.21105868 375.93304653 -147.17234264 379.04700759 -149.625 382.8125 C-150.07359375 383.5144751 -150.5221875 384.2164502 -150.984375 384.93969727 C-160.10836363 399.05418181 -160.10836363 399.05418181 -164 401 C-164.28875 401.639375 -164.5775 402.27875 -164.875 402.9375 C-166 405 -166 405 -168.0625 406 C-168.701875 406.33 -169.34125 406.66 -170 407 C-170.09539062 407.56332031 -170.19078125 408.12664062 -170.2890625 408.70703125 C-171.35576794 412.14744934 -173.79806761 414.23161843 -176.3125 416.6875 C-176.79912109 417.18572266 -177.28574219 417.68394531 -177.78710938 418.19726562 C-180.44629677 420.8349791 -182.32362916 422.31429488 -186 423 C-186.7425 424.2375 -186.7425 424.2375 -187.5 425.5 C-189 428 -189 428 -191.1875 428.8125 C-192.0846875 428.9053125 -192.0846875 428.9053125 -193 429 C-193 429.66 -193 430.32 -193 431 C-193.56203125 431.10441406 -194.1240625 431.20882813 -194.703125 431.31640625 C-197.42380471 432.12613235 -199.39257807 433.36203338 -201.75 434.9375 C-202.54921875 435.46214844 -203.3484375 435.98679687 -204.171875 436.52734375 C-204.77515625 437.01332031 -205.3784375 437.49929688 -206 438 C-206 438.66 -206 439.32 -206 440 C-206.66773438 440.07992188 -207.33546875 440.15984375 -208.0234375 440.2421875 C-211.92528139 441.23557033 -215.149576 443.15951009 -218.625 445.125 C-234.17233035 453.58388186 -250.6690773 458.61093384 -268 462 C-268.92594971 462.18618896 -269.85189941 462.37237793 -270.8059082 462.56420898 C-280.97997887 464.38301451 -291.13420583 464.43896422 -301.4375 464.4375 C-302.38009674 464.43889984 -303.32269348 464.44029968 -304.29385376 464.44174194 C-326.74260051 464.41445311 -348.85684991 462.01567779 -370 454 C-371.22847656 453.54882812 -372.45695312 453.09765625 -373.72265625 452.6328125 C-383.13704413 449.08142994 -392.10935602 444.69498302 -401 440 C-401.5966748 439.68836914 -402.19334961 439.37673828 -402.80810547 439.05566406 C-411.03960568 434.7160447 -418.3780369 429.70049142 -425.671875 423.94824219 C-426.62707031 423.2023584 -426.62707031 423.2023584 -427.6015625 422.44140625 C-428.16182129 421.99482666 -428.72208008 421.54824707 -429.29931641 421.08813477 C-430.9680398 419.87276951 -430.9680398 419.87276951 -433.08740234 419.59741211 C-435 419 -435 419 -436.01416016 417.18994141 C-436.3394873 416.46726074 -436.66481445 415.74458008 -437 415 C-438.20894203 413.60959683 -439.47277291 412.26594074 -440.7734375 410.9609375 C-441.5159375 410.21585938 -442.2584375 409.47078125 -443.0234375 408.703125 C-443.79945313 407.93484375 -444.57546875 407.1665625 -445.375 406.375 C-446.14328125 405.59898437 -446.9115625 404.82296875 -447.703125 404.0234375 C-448.44820312 403.2809375 -449.19328125 402.5384375 -449.9609375 401.7734375 C-450.97873291 400.75902588 -450.97873291 400.75902588 -452.01708984 399.72412109 C-453.91035358 397.92358211 -453.91035358 397.92358211 -456.18994141 396.95166016 C-458 396 -458 396 -459 393 C-459.99 392.34 -460.98 391.68 -462 391 C-461.67 390.34 -461.34 389.68 -461 389 C-457.46251481 391.01569911 -454.23159676 393.2697888 -450.99047852 395.7175293 C-428.25568827 412.87052835 -401.94097964 426.07662789 -374 432 C-372.80503906 432.27457031 -371.61007812 432.54914063 -370.37890625 432.83203125 C-327.04421472 442.30129108 -280.12618451 437.18742789 -241 416 C-240.09556152 415.52457764 -240.09556152 415.52457764 -239.17285156 415.03955078 C-201.59575858 395.26698876 -174.78457489 359.15035482 -160 320 C-159.72849121 319.29117676 -159.45698242 318.58235352 -159.17724609 317.85205078 C-147.97420932 288.11798715 -144.88538044 257.07976977 -144.79467773 225.58251953 C-144.78508034 223.4524009 -144.77506922 221.3222841 -144.76467896 219.19216919 C-144.7378253 213.44939154 -144.71671092 207.70660585 -144.69667697 201.96380091 C-144.67469577 195.94735939 -144.64736687 189.93094214 -144.62062073 183.91452026 C-144.57085694 172.53939114 -144.5258581 161.16424842 -144.48259836 149.7890929 C-144.4330859 136.83132035 -144.37822005 123.87357216 -144.32291877 110.91582322 C-144.2093494 84.27723825 -144.10245656 57.63862987 -144 31 C-143.18582108 31.61134796 -143.18582108 31.61134796 -142.35519409 32.23504639 C-141.28194382 33.04053925 -141.28194382 33.04053925 -140.18701172 33.86230469 C-139.47922577 34.39362 -138.77143982 34.9249353 -138.04220581 35.47235107 C-97.20366519 66.02115884 -50.11208895 76.8159908 0 82 C0 54.94 0 27.88 0 0 Z M-122 297 C-122 298.98 -122 300.96 -122 303 C-121.67 303 -121.34 303 -121 303 C-121 301.02 -121 299.04 -121 297 C-121.33 297 -121.66 297 -122 297 Z M-126 319 C-125 322 -125 322 -125 322 Z M-127 323 C-126 326 -126 326 -126 326 Z M-128 326 C-127 329 -127 329 -127 329 Z M-133 342 C-132 344 -132 344 -132 344 Z M-134 345 C-133 347 -133 347 -133 347 Z " fill="#FB004E" transform="translate(523,176)"/>
<path d="M0 0 C34.32 0 68.64 0 104 0 C104.99 7.92 104.99 7.92 106 16 C106.66 16 107.32 16 108 16 C108 18.31 108 20.62 108 23 C114.6 23 121.2 23 128 23 C128 23.33 128 23.66 128 24 C121.07 24 114.14 24 107 24 C107 24.66 107 25.32 107 26 C79.94 26 52.88 26 25 26 C25.02094727 38.71329834 25.04189453 51.42659668 25.06347656 64.52514648 C25.12777146 105.27296816 25.17221053 146.02079008 25.20426132 186.76864937 C25.20926373 193.10545062 25.21444106 199.44225171 25.21972656 205.77905273 C25.2207758 207.04051564 25.22182505 208.30197854 25.22290608 209.60166759 C25.24027811 229.98669354 25.27179805 250.37167404 25.30861118 270.75667309 C25.34610992 291.69705077 25.36825468 312.63740476 25.37635398 333.57781464 C25.38182327 346.48345087 25.39905342 359.38895861 25.43166587 372.29455525 C25.45292419 381.16253657 25.45917462 390.03045214 25.45400551 398.89845704 C25.45146123 404.00328879 25.45516611 409.10789714 25.4768219 414.21268845 C25.74756819 481.55126249 25.74756819 481.55126249 1.6796875 506.31640625 C0.79539062 507.20199219 -0.08890625 508.08757812 -1 509 C-1.65742188 509.66902344 -2.31484375 510.33804687 -2.9921875 511.02734375 C-19.16095242 526.32868566 -42.22923512 532.54615969 -63.98925781 532.35351562 C-85.63512913 531.73632174 -106.99645173 523.2281346 -122.26171875 507.69921875 C-132 496.98890943 -132 496.98890943 -132 493 C-128.09974802 494.24488277 -124.41216775 495.68245923 -120.6875 497.375 C-99.73598304 506.0277711 -75.12496522 507.5382768 -53.77636719 499.12353516 C-49.41982155 497.26506151 -45.19249477 495.20136894 -41 493 C-41 492.34 -41 491.68 -41 491 C-40.319375 490.95875 -39.63875 490.9175 -38.9375 490.875 C-34.77917734 489.6363507 -31.93529751 487.1571084 -29 484 C-28.3233274 482.67171674 -27.65580488 481.33870915 -27 480 C-25.37064759 478.62131719 -23.70250393 477.28725907 -22 476 C-19.62112149 473.87600133 -19.0446753 473.13402591 -18 470 C-17.34 469.67 -16.68 469.34 -16 469 C-15.5359375 467.824375 -15.5359375 467.824375 -15.0625 466.625 C-13.98963381 463.97438941 -12.96858748 462.96858748 -11 461 C-10.39938767 459.09821215 -10.39938767 459.09821215 -10 457 C-9.3530635 455.3255761 -8.69040574 453.65697379 -8 452 C-7.34 452 -6.68 452 -6 452 C-5.34411163 448.58518717 -4.702244 445.16787104 -4.0625 441.75 C-3.88009766 440.80125 -3.69769531 439.8525 -3.50976562 438.875 C-3.24389648 437.44414063 -3.24389648 437.44414063 -2.97265625 435.984375 C-2.81031494 435.12553711 -2.64797363 434.26669922 -2.48071289 433.38183594 C-0.93523513 422.50933317 -0.84793887 411.64424267 -0.84178162 400.68804932 C-0.83720784 398.95352496 -0.83220664 397.21900168 -0.82681805 395.48447967 C-0.81332042 390.74573639 -0.80584305 386.00700023 -0.79939139 381.26824284 C-0.79135037 376.14774308 -0.77766546 371.02725797 -0.76467896 365.9067688 C-0.74296849 357.04429841 -0.72480428 348.18182651 -0.70907402 339.31934357 C-0.68632577 326.50580595 -0.65818991 313.69228458 -0.62875474 300.87876078 C-0.58113945 280.08780084 -0.53785891 259.29683423 -0.49731445 238.50585938 C-0.45792863 218.31379682 -0.41649504 198.12174016 -0.37231445 177.9296875 C-0.36822804 176.0615703 -0.36822804 176.0615703 -0.36405908 174.15571335 C-0.3503791 167.9076191 -0.33665892 161.65952495 -0.32291877 155.41143084 C-0.20904927 103.60763217 -0.10301934 51.80382161 0 0 Z " fill="#00F7EF" transform="translate(275,0)"/>
<path d="M0 0 C2.35199551 -0.00216996 4.70350801 -0.02032967 7.05541992 -0.03930664 C32.1846799 -0.13190321 32.1846799 -0.13190321 38.8190918 3.18530273 C38.8190918 10.11530273 38.8190918 17.04530273 38.8190918 24.18530273 C40.4690918 24.18530273 42.1190918 24.18530273 43.8190918 24.18530273 C43.8190918 24.51530273 43.8190918 24.84530273 43.8190918 25.18530273 C41.5090918 25.18530273 39.1990918 25.18530273 36.8190918 25.18530273 C36.8190918 25.84530273 36.8190918 26.50530273 36.8190918 27.18530273 C36.00045654 27.19464844 35.18182129 27.20399414 34.33837891 27.21362305 C-8.61220197 27.8262161 -48.96934483 36.77771975 -83.1809082 64.18530273 C-84.08067383 64.88139648 -84.98043945 65.57749023 -85.9074707 66.29467773 C-98.3318945 76.10531785 -108.88159088 87.40753426 -118.1809082 100.18530273 C-118.59405273 100.74878418 -119.00719727 101.31226563 -119.43286133 101.89282227 C-135.84753532 124.57030571 -147.24195258 150.87873177 -153.1809082 178.18530273 C-153.37700684 179.04881348 -153.57310547 179.91232422 -153.77514648 180.80200195 C-159.46339256 206.7409622 -160.16891839 237.20058153 -154.1809082 263.18530273 C-154.00398438 263.99725098 -153.82706055 264.80919922 -153.64477539 265.64575195 C-147.71121397 292.58248114 -137.17519797 316.67787435 -121.1809082 339.18530273 C-121.8409082 340.17530273 -122.5009082 341.16530273 -123.1809082 342.18530273 C-123.5109082 341.52530273 -123.8409082 340.86530273 -124.1809082 340.18530273 C-127.27133913 335.54965634 -131.30376318 330.60592515 -136.37231445 328.10327148 C-138.98117003 326.77912232 -139.12198901 324.83260071 -140.1809082 322.18530273 C-141.50611323 321.50262136 -142.83903002 320.83459863 -144.1809082 320.18530273 C-144.54252849 318.85936169 -144.87818859 317.52591816 -145.1809082 316.18530273 C-146.1709082 315.85530273 -147.1609082 315.52530273 -148.1809082 315.18530273 C-149.95057519 312.79858081 -151.58238021 310.43182733 -153.1809082 307.93530273 C-153.61918945 307.2662793 -154.0574707 306.59725586 -154.5090332 305.90795898 C-161.01838696 295.92825699 -161.01838696 295.92825699 -161.6184082 293.18530273 C-162.08318226 290.97567553 -162.08318226 290.97567553 -164.1184082 288.99780273 C-166.84878699 285.27455893 -167.43720161 281.67689914 -168.1809082 277.18530273 C-168.8409082 277.18530273 -169.5009082 277.18530273 -170.1809082 277.18530273 C-170.30208008 276.49823242 -170.42325195 275.81116211 -170.5480957 275.10327148 C-170.71567383 274.2022168 -170.88325195 273.30116211 -171.0559082 272.37280273 C-171.29954102 271.03282227 -171.29954102 271.03282227 -171.5480957 269.66577148 C-172.09279269 266.95802427 -172.09279269 266.95802427 -174.1809082 264.18530273 C-175.18230701 261.18110632 -175.69512277 258.30820909 -176.1809082 255.18530273 C-176.8409082 255.18530273 -177.5009082 255.18530273 -178.1809082 255.18530273 C-178.73700523 251.45150839 -179.23692264 247.72915246 -179.62011719 243.97363281 C-179.9527588 240.93377339 -180.37055661 237.9383776 -180.91943359 234.93017578 C-183.17352652 222.57273725 -183.7007257 210.54182467 -183.6184082 197.99780273 C-183.61536682 197.01150879 -183.61232544 196.02521484 -183.60919189 195.0090332 C-183.54110705 180.06062713 -182.88588068 165.73816759 -179.1809082 151.18530273 C-178.9559668 150.28038086 -178.73102539 149.37545898 -178.49926758 148.44311523 C-175.81972205 137.90209315 -172.45707212 127.71062141 -168.38012695 117.63061523 C-167.06326723 114.26079764 -167.06326723 114.26079764 -166.8137207 110.84545898 C-165.94812149 105.83887589 -163.77664992 101.93186152 -161.3684082 97.49780273 C-160.92948242 96.65668945 -160.49055664 95.81557617 -160.03833008 94.94897461 C-157.78512294 90.72714073 -155.65269311 87.51665589 -152.1809082 84.18530273 C-151.80436917 82.86352089 -151.47048163 81.52881906 -151.1809082 80.18530273 C-149.84106445 78.07983398 -149.84106445 78.07983398 -148.2434082 75.99780273 C-147.71875977 75.30299805 -147.19411133 74.60819336 -146.65356445 73.89233398 C-145.1809082 72.18530273 -145.1809082 72.18530273 -143.1809082 71.18530273 C-142.6859082 69.70030273 -142.6859082 69.70030273 -142.1809082 68.18530273 C-141.5209082 67.85530273 -140.8609082 67.52530273 -140.1809082 67.18530273 C-139.8921582 66.54592773 -139.6034082 65.90655273 -139.3059082 65.24780273 C-138.1809082 63.18530273 -138.1809082 63.18530273 -136.1184082 62.18530273 C-135.1593457 61.69030273 -135.1593457 61.69030273 -134.1809082 61.18530273 C-133.9952832 60.25717773 -133.9952832 60.25717773 -133.8059082 59.31030273 C-132.82332293 55.9695128 -130.03244296 55.06839173 -127.1809082 53.18530273 C-124.15802835 50.08418364 -121.58134042 46.78595106 -119.1809082 43.18530273 C-118.5415332 43.06155273 -117.9021582 42.93780273 -117.2434082 42.81030273 C-114.90067773 42.35238413 -114.90067773 42.35238413 -113.6809082 39.68530273 C-112.1809082 37.18530273 -112.1809082 37.18530273 -110.3215332 36.68139648 C-109.26192383 36.43583008 -109.26192383 36.43583008 -108.1809082 36.18530273 C-106.23564415 35.09171773 -106.23564415 35.09171773 -104.4309082 33.74780273 C-103.81731445 33.3159668 -103.2037207 32.88413086 -102.5715332 32.43920898 C-102.11262695 32.02541992 -101.6537207 31.61163086 -101.1809082 31.18530273 C-101.1809082 30.52530273 -101.1809082 29.86530273 -101.1809082 29.18530273 C-100.59712402 29.0616333 -100.01333984 28.93796387 -99.41186523 28.81054688 C-97.16396473 28.18055419 -95.49357321 27.35903685 -93.4855957 26.18139648 C-92.42634888 25.57086426 -92.42634888 25.57086426 -91.34570312 24.94799805 C-90.5900708 24.51068359 -89.83443848 24.07336914 -89.0559082 23.62280273 C-61.28520578 7.96578018 -31.92951952 -0.00328324 0 0 Z M-178.1809082 248.18530273 C-177.1809082 251.18530273 -177.1809082 251.18530273 -177.1809082 251.18530273 Z M-170.1809082 272.18530273 C-169.1809082 274.18530273 -169.1809082 274.18530273 -169.1809082 274.18530273 Z " fill="#00F6EE" transform="translate(183.180908203125,223.814697265625)"/>
<path d="M0 0 C23.375 1.375 23.375 1.375 25 3 C25.09565123 4.4674896 25.12188309 5.93956884 25.12025452 7.41017151 C25.12231651 8.83843262 25.12231651 8.83843262 25.12442017 10.29554749 C25.12082489 11.34858566 25.11722961 12.40162384 25.11352539 13.48657227 C25.11367142 14.58887177 25.11381744 15.69117126 25.1139679 16.82687378 C25.11326821 20.49007092 25.10547324 24.15321794 25.09765625 27.81640625 C25.09579227 30.34846468 25.09436827 32.88052348 25.09336853 35.4125824 C25.08993346 41.40848249 25.08204269 47.40436089 25.07201904 53.40025228 C25.06085677 60.22481058 25.05534717 67.04936972 25.05032361 73.87393486 C25.03986004 87.91596664 25.0222613 101.95798233 25 116 C23.91388428 115.92998779 22.82776855 115.85997559 21.70874023 115.7878418 C20.26286122 115.69575133 18.81697888 115.60371308 17.37109375 115.51171875 C16.65771851 115.46559448 15.94434326 115.41947021 15.20935059 115.37194824 C-13.05667416 113.58152363 -38.80494592 118.70140108 -61.0234375 136.921875 C-63.08355154 139.0878447 -63.47656867 140.14547335 -64 143 C-65.31337396 144.0260734 -66.64664105 145.02727325 -68 146 C-68.33 146.99 -68.66 147.98 -69 149 C-69.66 149.33 -70.32 149.66 -71 150 C-71.33 150.99 -71.66 151.98 -72 153 C-72.66 153 -73.32 153 -74 153 C-74.10183594 153.82757813 -74.20367187 154.65515625 -74.30859375 155.5078125 C-75.10944016 159.55276553 -76.47920255 163.08390263 -78.0625 166.875 C-78.34416016 167.56335938 -78.62582031 168.25171875 -78.91601562 168.9609375 C-79.60515266 170.64289909 -80.30180798 172.32177697 -81 174 C-81.66 174 -82.32 174 -83 174 C-87.22507131 194.09423797 -86.90520544 212.23039919 -81 232 C-80.34 232 -79.68 232 -79 232 C-77.68 235.3 -76.36 238.6 -75 242 C-80.66988103 242 -82.10335499 240.70459623 -85.875 237 C-86.40383789 236.49235107 -86.93267578 235.98470215 -87.47753906 235.46166992 C-88.99854962 233.98752067 -90.49937674 232.4948395 -92 231 C-92.67804688 230.35675781 -93.35609375 229.71351563 -94.0546875 229.05078125 C-109.98299024 212.71876577 -112.44296669 188.50476819 -112.21484375 166.94140625 C-111.68710556 146.07116348 -102.66001728 126.68420873 -88 112 C-87.23945313 111.22785156 -86.47890625 110.45570313 -85.6953125 109.66015625 C-68.88346753 93.53732131 -47.17740542 87.58402167 -24.31005859 87.79418945 C-22.23913361 87.81259658 -20.16865513 87.81469729 -18.09765625 87.81445312 C-11.92711524 87.83707592 -6.14489863 88.12215734 0 89 C0 59.63 0 30.26 0 0 Z M-81 166 C-80 168 -80 168 -80 168 Z M-79 237 C-78 239 -78 239 -78 239 Z " fill="#FD004E" transform="translate(220,250)"/>
<path d="M0 0 C7.26 0 14.52 0 22 0 C22.99 8.58 23.98 17.16 25 26 C25.66 26 26.32 26 27 26 C27.06058594 26.74765625 27.12117188 27.4953125 27.18359375 28.265625 C27.30927734 29.74289063 27.30927734 29.74289063 27.4375 31.25 C27.51871094 32.22453125 27.59992188 33.1990625 27.68359375 34.203125 C28.04076698 37.36036 28.46090587 40.02289189 30 42.8125 C31.37398902 45.81810099 31.60521336 48.72891068 32 52 C32.3274322 54.00097458 32.65876419 56.00133314 33 58 C33.66 58 34.32 58 35 58 C35 59.65 35 61.3 35 63 C35.66 63 36.32 63 37 63 C38.75421817 66.73724741 39.9416527 69.56968865 40.5 73.6875 C41.03357134 77.22241015 41.65970586 78.39967317 44 81 C46.86976895 84.4569033 49.36525574 88.00608127 51.75 91.8125 C52.36359375 92.78832031 52.9771875 93.76414062 53.609375 94.76953125 C54.29773438 95.87361328 54.29773438 95.87361328 55 97 C39.69301406 92.93019576 27.60933528 73.49506614 19.96875 60.59375 C9.86967098 42.48930346 0 20.99649212 0 0 Z M26 32 C27 36 27 36 27 36 Z M29 45 C30 48 30 48 30 48 Z M30 49 C31 51 31 51 31 51 Z M36 66 C37 68 37 68 37 68 Z " fill="#F6004D" transform="translate(382,25)"/>
<path d="M0 0 C3.11265456 1.45978092 6.00189153 3.2089228 8.92089844 5.02026367 C34.42780874 20.75962069 61.46648084 26.65658274 91 30 C91.33 37.26 91.66 44.52 92 52 C70.70575513 54.66178061 45.46461105 41.90065254 28.5625 29.5 C23.14969967 25.24390769 18.00933268 20.72184055 13 16 C12.35160156 15.40445313 11.70320313 14.80890625 11.03515625 14.1953125 C6.56145198 9.94676184 3.24142156 5.23614252 0 0 Z " fill="#00F5ED" transform="translate(435,123)"/>
<path d="M0 0 C0.33 0 0.66 0 1 0 C1 137.94 1 275.88 1 418 C0.67 418 0.34 418 0 418 C0 280.06 0 142.12 0 0 Z " fill="#00FEFE" transform="translate(273,0)"/>
<path d="M0 0 C2.59563145 2.59563145 2.22964828 4.35072509 2.2319895 7.88538229 C2.22227287 8.7161105 2.21255624 9.5468387 2.20254517 10.40274048 C2.20017046 11.28241309 2.19779576 12.16208569 2.1953491 13.06841505 C2.18488307 16.03352958 2.15999879 18.99835162 2.13525391 21.96337891 C2.12483405 24.08186951 2.11529766 26.20036461 2.10658264 28.31886292 C2.08034107 34.08516564 2.04167648 39.85132725 2.00085878 45.61754274 C1.96032842 51.63800652 1.93111569 57.65852467 1.90072632 63.67904663 C1.84141364 75.08651901 1.7718541 86.49390522 1.69865549 97.90129602 C1.61583565 110.8853338 1.5443745 123.86942621 1.47388959 136.85353589 C1.3286071 163.56910429 1.1689883 190.28457178 1 217 C0.67 217 0.34 217 0 217 C0 145.39 0 73.78 0 0 Z " fill="#EE0056" transform="translate(405,236)"/>
<path d="M0 0 C3.11265456 1.45978092 6.00189153 3.2089228 8.92089844 5.02026367 C27.02722901 16.1930007 46.07257771 23.10811396 67 27 C66.67 27.66 66.34 28.32 66 29 C62.75529346 29.09013074 60.11950277 28.83863345 57 28 C55.88109375 27.71382812 54.7621875 27.42765625 53.609375 27.1328125 C40.35204496 23.67087814 40.35204496 23.67087814 34 21 C32.95457031 20.57976562 31.90914063 20.15953125 30.83203125 19.7265625 C22.76131719 16.39970327 15.42718581 12.59778169 8 8 C8.99 8.99 9.98 9.98 11 11 C10.67 11.66 10.34 12.32 10 13 C8.70291686 11.58829091 7.41254022 10.17041804 6.125 8.75 C5.40570313 7.96109375 4.68640625 7.1721875 3.9453125 6.359375 C2.23064517 4.27973832 1.07019127 2.45580733 0 0 Z " fill="#00FCFA" transform="translate(435,123)"/>
<path d="M0 0 C3.90025198 1.24488277 7.58783225 2.68245923 11.3125 4.375 C28.79525139 11.5425027 45.36649259 11.49440881 64 11 C64 11.66 64 12.32 64 13 C61.525 12.505 61.525 12.505 59 12 C59 12.66 59 13.32 59 14 C54.85418113 14.02886751 50.70838784 14.04675327 46.5625 14.0625 C45.37849609 14.07087891 44.19449219 14.07925781 42.97460938 14.08789062 C41.84990234 14.09111328 40.72519531 14.09433594 39.56640625 14.09765625 C38.00321655 14.10551147 38.00321655 14.10551147 36.40844727 14.11352539 C34 14 34 14 33 13 C32.2575 13.020625 31.515 13.04125 30.75 13.0625 C27.65405539 12.99213762 25.85929077 12.16970986 23 11 C21.58703176 10.6909132 20.16978845 10.40106998 18.75 10.125 C13.83160395 9.09998973 9.50114208 7.19204555 5 5 C5.66 6.65 6.32 8.3 7 10 C3.60582235 6.87378374 1.3937282 4.43458973 0 0 Z " fill="#00FDFB" transform="translate(143,493)"/>
<path d="M0 0 C-2.47212445 1.64808296 -4.30707445 2.58737575 -7.03515625 3.59375 C-23.80784124 9.93921325 -39.03666048 17.6650538 -53 29 C-53.66 28.67 -54.32 28.34 -55 28 C-53.33333333 26.33333333 -51.66666667 24.66666667 -50 23 C-49.484375 22.443125 -48.96875 21.88625 -48.4375 21.3125 C-46.75127893 19.77290685 -45.0490923 19.00421878 -43 18 C-41.76317039 17.30845005 -40.53152266 16.60756676 -39.3046875 15.8984375 C-7.43347991 -2.30694204 -7.43347991 -2.30694204 0 0 Z " fill="#00FEFB" transform="translate(129,234)"/>
<path d="M0 0 C0.33 0 0.66 0 1 0 C1 37.29 1 74.58 1 113 C0.67 113 0.34 113 0 113 C0 75.71 0 38.42 0 0 Z " fill="#FF004C" transform="translate(246,253)"/>
<path d="M0 0 C1.32 0.33 2.64 0.66 4 1 C4 7.93 4 14.86 4 22 C5.65 22 7.3 22 9 22 C9 22.33 9 22.66 9 23 C6.69 23 4.38 23 2 23 C2 23.66 2 24.32 2 25 C-5.59 25 -13.18 25 -21 25 C-21 24.67 -21 24.34 -21 24 C-14.07 24 -7.14 24 0 24 C0 16.08 0 8.16 0 0 Z " fill="#0CD6D5" transform="translate(218,226)"/>
<path d="M0 0 C1.75278191 3.27185957 2.68461059 6.2996397 3.359375 9.9375 C4.46418102 15.77087581 6.51257303 20.96359503 8.87890625 26.3984375 C10 29 10 29 11 32 C10.01 32 9.02 32 8 32 C7.67 32.66 7.34 33.32 7 34 C6.87882813 33.31292969 6.75765625 32.62585938 6.6328125 31.91796875 C6.46523437 31.01691406 6.29765625 30.11585938 6.125 29.1875 C5.88136719 27.84751953 5.88136719 27.84751953 5.6328125 26.48046875 C5.08811551 23.77272154 5.08811551 23.77272154 3 21 C1.9986012 17.99580359 1.48578543 15.12290635 1 12 C0.34 12 -0.32 12 -1 12 C-1.92470553 7.28400182 -2.22923777 4.32734391 0 0 Z M-1 5 C0 8 0 8 0 8 Z M7 29 C8 31 8 31 8 31 Z " fill="#00FEF9" transform="translate(6,467)"/>
<path d="M0 0 C0.99 0 1.98 0 3 0 C0.56541971 7.56421664 -2.24501651 14.95623507 -5.12695312 22.359375 C-6.99261875 27.19811458 -8.67420562 31.98533731 -10 37 C-10.66 36.67 -11.32 36.34 -12 36 C-10.6509552 29.10722421 -8.58115263 22.83552159 -6 16.3125 C-5.29057284 14.49652068 -4.5822101 12.68012512 -3.875 10.86328125 C-3.38386719 9.60378662 -3.38386719 9.60378662 -2.8828125 8.31884766 C-1.83710519 5.57213084 -0.89165328 2.80034859 0 0 Z " fill="#00FEFC" transform="translate(20,327)"/>
<path d="M0 0 C2.75031587 0.14111883 5.50015418 0.28771165 8.25 0.4375 C9.41595703 0.49647461 9.41595703 0.49647461 10.60546875 0.55664062 C11.73662109 0.61948242 11.73662109 0.61948242 12.890625 0.68359375 C13.92751465 0.73858032 13.92751465 0.73858032 14.98535156 0.79467773 C17 1 17 1 21 2 C21 8.27 21 14.54 21 21 C20.34 21.33 19.68 21.66 19 22 C19 16.06 19 10.12 19 4 C13.77547576 3.12136272 13.77547576 3.12136272 8.6875 3 C7.470625 3 6.25375 3 5 3 C4.67 2.67 4.34 2.34 4 2 C2.33382885 1.95936168 0.66611905 1.957279 -1 2 C-0.67 1.34 -0.34 0.68 0 0 Z " fill="#00FEFC" transform="translate(503,151)"/>
<path d="M0 0 C0 5.51805011 -5.3031554 9.22497439 -9 13 C-13.14740545 16.92357722 -17.39839046 20.61859254 -22 24 C-22.66 23.67 -23.32 23.34 -24 23 C-23.30132812 22.39671875 -22.60265625 21.7934375 -21.8828125 21.171875 C-20.97273437 20.37265625 -20.06265625 19.5734375 -19.125 18.75 C-17.76761719 17.56664062 -17.76761719 17.56664062 -16.3828125 16.359375 C-14.21877531 14.21662342 -13.21870479 12.71730351 -12 10 C-10.37946188 8.61096733 -8.70294787 7.28667172 -7 6 C-5.72279792 4.92418248 -4.45213842 3.84055864 -3.1875 2.75 C-2.58292969 2.22921875 -1.97835938 1.7084375 -1.35546875 1.171875 C-0.68451172 0.59179688 -0.68451172 0.59179688 0 0 Z " fill="#00FEFB" transform="translate(260,470)"/>
<path d="M0 0 C0 0.66 0 1.32 0 2 C-18.28234948 11.70660823 -18.28234948 11.70660823 -24.28125 10.56640625 C-24.8484375 10.37949219 -25.415625 10.19257813 -26 10 C-21.39820832 7.51594827 -16.43790043 6.01478427 -11.5078125 4.31640625 C-7.97926603 3.06187892 -7.97926603 3.06187892 -4.6796875 1.33984375 C-2 0 -2 0 0 0 Z " fill="#00FEFC" transform="translate(234,494)"/>
<path d="M0 0 C2.82928932 2.55071314 4.67893264 5.46621272 6.6875 8.6875 C7.31011719 9.68136719 7.93273437 10.67523438 8.57421875 11.69921875 C9.04472656 12.45847656 9.51523437 13.21773437 10 14 C5.55190676 12.58917818 2.21837022 11.50234406 -1 8 C-1.375 4.3125 -1.375 4.3125 -1 1 C-0.67 0.67 -0.34 0.34 0 0 Z " fill="#D60A4B" transform="translate(427,108)"/>
<path d="M0 0 C0.66 0.33 1.32 0.66 2 1 C0.02 3.97 0.02 3.97 -2 7 C-2.66 6.67 -3.32 6.34 -4 6 C-3.67 4.35 -3.34 2.7 -3 1 C-2.01 0.67 -1.02 0.34 0 0 Z M-6 6 C-5.34 6.33 -4.68 6.66 -4 7 C-4.53069061 10.82097239 -5.49701566 13.06171403 -8 16 C-8.66 14.68 -9.32 13.36 -10 12 C-8.68 10.02 -7.36 8.04 -6 6 Z " fill="#00FBFA" transform="translate(36,302)"/>
<path d="M0 0 C4.87072783 4.56630734 8.89156398 9.74976539 13 15 C9.07176899 15 7.93381106 13.48245551 5 11 C4.34 10.67 3.68 10.34 3 10 C2.855625 9.34 2.71125 8.68 2.5625 8 C2.376875 7.34 2.19125 6.68 2 6 C1.01 5.67 0.02 5.34 -1 5 C-0.67 3.35 -0.34 1.7 0 0 Z " fill="#00FEFB" transform="translate(36,534)"/>
<path d="M0 0 C0.66 0 1.32 0 2 0 C0.62175119 5.01181384 -1.44222574 10.12772636 -5 14 C-6.32 14 -7.64 14 -9 14 C-7.79394437 10.56738012 -6.66490336 8.45171109 -4 6 C-2.45153037 4.0346347 -1.11904298 2.23808595 0 0 Z " fill="#00FEFC" transform="translate(268,455)"/>
<path d="M0 0 C2.72675159 2.40689803 4.11966596 4.92471023 5.6875 8.1875 C6.12449219 9.08855469 6.56148437 9.98960937 7.01171875 10.91796875 C7.33785156 11.60503906 7.66398437 12.29210937 8 13 C7.34 13 6.68 13 6 13 C5.67 13.66 5.34 14.32 5 15 C1.24569762 9.83783423 -0.67081836 6.43985624 0 0 Z " fill="#00FEFC" transform="translate(22,512)"/>
<path d="M0 0 C11.88 0 23.76 0 36 0 C36 0.33 36 0.66 36 1 C24.12 1 12.24 1 0 1 C0 0.67 0 0.34 0 0 Z " fill="#00FFF2" transform="translate(168,222)"/>
<path d="M0 0 C2.09782787 2.09782787 2.6509396 3.3799207 3.625 6.125 C3.88539063 6.84945313 4.14578125 7.57390625 4.4140625 8.3203125 C4.70410156 9.15175781 4.70410156 9.15175781 5 10 C2.6875 10.25 2.6875 10.25 0 10 C-1.8125 8 -1.8125 8 -3 6 C-2.01 4.02 -1.02 2.04 0 0 Z M1 5 C2 7 2 7 2 7 Z " fill="#D40645" transform="translate(140,482)"/>
<path d="M0 0 C4.43458973 1.3937282 6.87378374 3.60582235 10 7 C9.34 7.66 8.68 8.32 8 9 C6.0625 8.1875 6.0625 8.1875 4 7 C3.67 6.01 3.34 5.02 3 4 C2.01 3.34 1.02 2.68 0 2 C0 1.34 0 0.68 0 0 Z " fill="#B10041" transform="translate(61,565)"/>
<path d="M0 0 C0.66 0.66 1.32 1.32 2 2 C1.7578125 4.6015625 1.7578125 4.6015625 1.125 7.625 C0.81949219 9.12933594 0.81949219 9.12933594 0.5078125 10.6640625 C0.34023437 11.43492187 0.17265625 12.20578125 0 13 C-0.66 12.67 -1.32 12.34 -2 12 C-1 3.42857143 -1 3.42857143 0 0 Z " fill="#00FEFC" transform="translate(7,363)"/>
<path d="M0 0 C7.26 0 14.52 0 22 0 C22 0.33 22 0.66 22 1 C14.74 1 7.48 1 0 1 C0 0.67 0 0.34 0 0 Z " fill="#00FCF3" transform="translate(179,503)"/>
<path d="M0 0 C1.125 1.625 1.125 1.625 2 4 C1.125 7.25 1.125 7.25 0 10 C-0.66 9.67 -1.32 9.34 -2 9 C-1.125 2.25 -1.125 2.25 0 0 Z " fill="#D60051" transform="translate(381,535)"/>
<path d="M0 0 C7.48291572 6.15034169 7.48291572 6.15034169 10 10 C5.86360664 8.40907948 2.76786752 5.39525082 0 2 C0 1.34 0 0.68 0 0 Z " fill="#860032" transform="translate(72,578)"/>
<path d="M0 0 C0.66 0.33 1.32 0.66 2 1 C1.67 3.64 1.34 6.28 1 9 C0.34 8.67 -0.32 8.34 -1 8 C-0.67 5.36 -0.34 2.72 0 0 Z " fill="#00FEFC" transform="translate(271,444)"/>
<path d="M0 0 C0.33 0 0.66 0 1 0 C1 5.28 1 10.56 1 16 C0.67 16 0.34 16 0 16 C0 10.72 0 5.44 0 0 Z " fill="#FF005E" transform="translate(134,442)"/>
<path d="M0 0 C0.33 0 0.66 0 1 0 C1 3.96 1 7.92 1 12 C0.67 12 0.34 12 0 12 C0 8.04 0 4.08 0 0 Z " fill="#EF0065" transform="translate(404,453)"/>
<path d="M0 0 C3.96 0 7.92 0 12 0 C12 0.33 12 0.66 12 1 C8.04 1 4.08 1 0 1 C0 0.67 0 0.34 0 0 Z " fill="#E50038" transform="translate(228,366)"/>
<path d="M0 0 C0.33 0 0.66 0 1 0 C1 3.96 1 7.92 1 12 C0.67 12 0.34 12 0 12 C0 8.04 0 4.08 0 0 Z " fill="#00FFFA" transform="translate(381,4)"/>
<path d="M0 0 C0.33 0 0.66 0 1 0 C1 3.63 1 7.26 1 11 C0.67 11 0.34 11 0 11 C0 7.37 0 3.74 0 0 Z " fill="#00FFFA" transform="translate(272,419)"/>
<path d="M0 0 C3.63 0 7.26 0 11 0 C11 0.33 11 0.66 11 1 C7.37 1 3.74 1 0 1 C0 0.67 0 0.34 0 0 Z " fill="#E10042" transform="translate(206,366)"/>
<path d="M0 0 C3.63 0 7.26 0 11 0 C11 0.33 11 0.66 11 1 C7.37 1 3.74 1 0 1 C0 0.67 0 0.34 0 0 Z " fill="#E50044" transform="translate(529,285)"/>
<path d="M0 0 C3.3 0 6.6 0 10 0 C10 0.33 10 0.66 10 1 C6.7 1 3.4 1 0 1 C0 0.67 0 0.34 0 0 Z " fill="#FF006E" transform="translate(218,365)"/>
<path d="M0 0 C3.3 0 6.6 0 10 0 C10 0.33 10 0.66 10 1 C6.7 1 3.4 1 0 1 C0 0.67 0 0.34 0 0 Z " fill="#D4004C" transform="translate(227,249)"/>
<path d="M0 0 C3.3 0 6.6 0 10 0 C10 0.33 10 0.66 10 1 C6.7 1 3.4 1 0 1 C0 0.67 0 0.34 0 0 Z " fill="#D40039" transform="translate(534,176)"/>
<path d="M0 0 C3.3 0 6.6 0 10 0 C10 0.33 10 0.66 10 1 C6.7 1 3.4 1 0 1 C0 0.67 0 0.34 0 0 Z " fill="#00FCF7" transform="translate(510,150)"/>
<path d="M0 0 C0.33 0 0.66 0 1 0 C1 3.3 1 6.6 1 10 C0.67 10 0.34 10 0 10 C0 6.7 0 3.4 0 0 Z " fill="#D30037" transform="translate(406,34)"/>
<path d="M0 0 C2.97 0 5.94 0 9 0 C9 0.33 9 0.66 9 1 C6.03 1 3.06 1 0 1 C0 0.67 0 0.34 0 0 Z " fill="#00FFF7" transform="translate(204,223)"/>
<path d="M0 0 C0.33 0 0.66 0 1 0 C1 2.64 1 5.28 1 8 C0.67 8 0.34 8 0 8 C0 5.36 0 2.72 0 0 Z " fill="#E90059" transform="translate(403,465)"/>
<path d="M0 0 C0.33 0 0.66 0 1 0 C1 2.64 1 5.28 1 8 C0.67 8 0.34 8 0 8 C0 5.36 0 2.72 0 0 Z " fill="#CB004C" transform="translate(135,458)"/>
<path d="M0 0 C2.64 0 5.28 0 8 0 C8 0.33 8 0.66 8 1 C5.36 1 2.72 1 0 1 C0 0.67 0 0.34 0 0 Z " fill="#00F8F2" transform="translate(159,223)"/>
<path d="M0 0 C0.33 0 0.66 0 1 0 C1 2.64 1 5.28 1 8 C0.67 8 0.34 8 0 8 C0 5.36 0 2.72 0 0 Z " fill="#FF006F" transform="translate(405,26)"/>
<path d="M0 0 C2.31 0 4.62 0 7 0 C7 0.33 7 0.66 7 1 C4.69 1 2.38 1 0 1 C0 0.67 0 0.34 0 0 Z " fill="#00DAD4" transform="translate(172,502)"/>
<path d="M0 0 C0.33 0 0.66 0 1 0 C1 2.31 1 4.62 1 7 C0.67 7 0.34 7 0 7 C0 4.69 0 2.38 0 0 Z " fill="#D30034" transform="translate(135,434)"/>
<path d="M0 0 C0.33 0 0.66 0 1 0 C1 2.31 1 4.62 1 7 C0.67 7 0.34 7 0 7 C0 4.69 0 2.38 0 0 Z " fill="#00EFEF" transform="translate(271,430)"/>
<path d="M0 0 C2.31 0 4.62 0 7 0 C7 0.33 7 0.66 7 1 C4.69 1 2.38 1 0 1 C0 0.67 0 0.34 0 0 Z " fill="#DA0000" transform="translate(541,286)"/>
<path d="M0 0 C2.31 0 4.62 0 7 0 C7 0.33 7 0.66 7 1 C4.69 1 2.38 1 0 1 C0 0.67 0 0.34 0 0 Z " fill="#E6003F" transform="translate(522,284)"/>
<path d="M0 0 C2.31 0 4.62 0 7 0 C7 0.33 7 0.66 7 1 C4.69 1 2.38 1 0 1 C0 0.67 0 0.34 0 0 Z " fill="#F40053" transform="translate(515,283)"/>
<path d="M0 0 C2.31 0 4.62 0 7 0 C7 0.33 7 0.66 7 1 C4.69 1 2.38 1 0 1 C0 0.67 0 0.34 0 0 Z " fill="#F40047" transform="translate(237,250)"/>
<path d="M0 0 C2.31 0 4.62 0 7 0 C7 0.33 7 0.66 7 1 C4.69 1 2.38 1 0 1 C0 0.67 0 0.34 0 0 Z " fill="#00EFD8" transform="translate(213,224)"/>
<path d="M0 0 C2.31 0 4.62 0 7 0 C7 0.33 7 0.66 7 1 C4.69 1 2.38 1 0 1 C0 0.67 0 0.34 0 0 Z " fill="#00FBF7" transform="translate(152,224)"/>
<path d="M0 0 C2.31 0 4.62 0 7 0 C7 0.33 7 0.66 7 1 C4.69 1 2.38 1 0 1 C0 0.67 0 0.34 0 0 Z " fill="#F40053" transform="translate(527,175)"/>
<path d="M0 0 C2.31 0 4.62 0 7 0 C7 0.33 7 0.66 7 1 C4.69 1 2.38 1 0 1 C0 0.67 0 0.34 0 0 Z " fill="#00FFF8" transform="translate(503,149)"/>
<path d="M0 0 C0.33 0 0.66 0 1 0 C1 2.31 1 4.62 1 7 C0.67 7 0.34 7 0 7 C0 4.69 0 2.38 0 0 Z " fill="#DA0057" transform="translate(407,44)"/>
<path d="M0 0 C1.98 0 3.96 0 6 0 C6 0.33 6 0.66 6 1 C4.02 1 2.04 1 0 1 C0 0.67 0 0.34 0 0 Z " fill="#DF002D" transform="translate(249,639)"/>
<path d="M0 0 C1.98 0 3.96 0 6 0 C6 0.33 6 0.66 6 1 C4.02 1 2.04 1 0 1 C0 0.67 0 0.34 0 0 Z " fill="#F4002A" transform="translate(185,639)"/>
<path d="M0 0 C1.98 0 3.96 0 6 0 C6 0.33 6 0.66 6 1 C4.02 1 2.04 1 0 1 C0 0.67 0 0.34 0 0 Z " fill="#EC0046" transform="translate(179,638)"/>
<path d="M0 0 C1.98 0 3.96 0 6 0 C6 0.33 6 0.66 6 1 C4.02 1 2.04 1 0 1 C0 0.67 0 0.34 0 0 Z " fill="#00FAF3" transform="translate(201,502)"/>
<path d="M0 0 C0.33 0 0.66 0 1 0 C1 1.98 1 3.96 1 6 C0.67 6 0.34 6 0 6 C0 4.02 0 2.04 0 0 Z " fill="#00FFFF" transform="translate(0,452)"/>
<path d="M0 0 C0.33 0 0.66 0 1 0 C1 1.98 1 3.96 1 6 C0.67 6 0.34 6 0 6 C0 4.02 0 2.04 0 0 Z " fill="#00E9E9" transform="translate(0,385)"/>
<path d="M0 0 C0.66 0.33 1.32 0.66 2 1 C0.02 1.99 0.02 1.99 -2 3 C-1.34 2.01 -0.68 1.02 0 0 Z " fill="#C00045" transform="translate(160,386)"/>
<path d="M0 0 C1.98 0 3.96 0 6 0 C6 0.33 6 0.66 6 1 C4.02 1 2.04 1 0 1 C0 0.67 0 0.34 0 0 Z " fill="#F60046" transform="translate(200,367)"/>
<path d="M0 0 C1.98 0 3.96 0 6 0 C6 0.33 6 0.66 6 1 C4.02 1 2.04 1 0 1 C0 0.67 0 0.34 0 0 Z " fill="#00FFE8" transform="translate(497,148)"/>
<path d="M0 0 C1.65 0 3.3 0 5 0 C5 0.33 5 0.66 5 1 C3.35 1 1.7 1 0 1 C0 0.67 0 0.34 0 0 Z " fill="#FA005F" transform="translate(255,638)"/>
<path d="M0 0 C1.65 0 3.3 0 5 0 C5 0.33 5 0.66 5 1 C3.35 1 1.7 1 0 1 C0 0.67 0 0.34 0 0 Z " fill="#FA003F" transform="translate(260,637)"/>
<path d="M0 0 C1.65 0 3.3 0 5 0 C5 0.33 5 0.66 5 1 C3.35 1 1.7 1 0 1 C0 0.67 0 0.34 0 0 Z " fill="#FA0054" transform="translate(174,637)"/>
<path d="M0 0 C1.65 0 3.3 0 5 0 C5 0.33 5 0.66 5 1 C3.35 1 1.7 1 0 1 C0 0.67 0 0.34 0 0 Z " fill="#FA005F" transform="translate(169,636)"/>
<path d="M0 0 C1.65 0 3.3 0 5 0 C5 0.33 5 0.66 5 1 C3.35 1 1.7 1 0 1 C0 0.67 0 0.34 0 0 Z " fill="#00FFFA" transform="translate(207,501)"/>
<path d="M0 0 C0.33 0 0.66 0 1 0 C1 1.65 1 3.3 1 5 C0.67 5 0.34 5 0 5 C0 3.35 0 1.7 0 0 Z " fill="#FA005F" transform="translate(400,485)"/>
<path d="M0 0 C0.33 0 0.66 0 1 0 C1 1.65 1 3.3 1 5 C0.67 5 0.34 5 0 5 C0 3.35 0 1.7 0 0 Z " fill="#FF0064" transform="translate(136,466)"/>
<path d="M0 0 C0.33 0 0.66 0 1 0 C1 1.65 1 3.3 1 5 C0.67 5 0.34 5 0 5 C0 3.35 0 1.7 0 0 Z " fill="#00FAFA" transform="translate(2,463)"/>
<path d="M0 0 C0.33 0 0.66 0 1 0 C1 1.65 1 3.3 1 5 C0.67 5 0.34 5 0 5 C0 3.35 0 1.7 0 0 Z " fill="#00F2EA" transform="translate(1,458)"/>
<path d="M0 0 C0.33 0 0.66 0 1 0 C1 1.65 1 3.3 1 5 C0.67 5 0.34 5 0 5 C0 3.35 0 1.7 0 0 Z " fill="#00FFFF" transform="translate(269,443)"/>
<path d="M0 0 C0.33 0 0.66 0 1 0 C1 1.65 1 3.3 1 5 C0.67 5 0.34 5 0 5 C0 3.35 0 1.7 0 0 Z " fill="#00FAFA" transform="translate(270,438)"/>
<path d="M0 0 C0.33 0 0.66 0 1 0 C1 1.65 1 3.3 1 5 C0.67 5 0.34 5 0 5 C0 3.35 0 1.7 0 0 Z " fill="#F4003A" transform="translate(136,428)"/>
<path d="M0 0 C0.33 0 0.66 0 1 0 C1 1.65 1 3.3 1 5 C0.67 5 0.34 5 0 5 C0 3.35 0 1.7 0 0 Z " fill="#00FAEA" transform="translate(1,380)"/>
<path d="M0 0 C0.33 0 0.66 0 1 0 C1 1.65 1 3.3 1 5 C0.67 5 0.34 5 0 5 C0 3.35 0 1.7 0 0 Z " fill="#00FFFA" transform="translate(2,375)"/>
<path d="M0 0 C1.65 0 3.3 0 5 0 C5 0.33 5 0.66 5 1 C3.35 1 1.7 1 0 1 C0 0.67 0 0.34 0 0 Z " fill="#F00049" transform="translate(510,282)"/>
<path d="M0 0 C1.65 0 3.3 0 5 0 C5 0.33 5 0.66 5 1 C3.35 1 1.7 1 0 1 C0 0.67 0 0.34 0 0 Z " fill="#B80034" transform="translate(504,281)"/>
<path d="M0 0 C1.65 0 3.3 0 5 0 C5 0.33 5 0.66 5 1 C3.35 1 1.7 1 0 1 C0 0.67 0 0.34 0 0 Z " fill="#FA0070" transform="translate(495,279)"/>
<path d="M0 0 C1.65 0 3.3 0 5 0 C5 0.33 5 0.66 5 1 C3.35 1 1.7 1 0 1 C0 0.67 0 0.34 0 0 Z " fill="#00CCC7" transform="translate(138,227)"/>
<path d="M0 0 C1.65 0 3.3 0 5 0 C5 0.33 5 0.66 5 1 C3.35 1 1.7 1 0 1 C0 0.67 0 0.34 0 0 Z " fill="#00FFFF" transform="translate(147,225)"/>
<path d="M0 0 C1.65 0 3.3 0 5 0 C5 0.33 5 0.66 5 1 C3.35 1 1.7 1 0 1 C0 0.67 0 0.34 0 0 Z " fill="#00FFF5" transform="translate(492,147)"/>
<path d="M0 0 C4 1 4 1 4 1 Z " fill="#FF0056" transform="translate(265,636)"/>
<path d="M0 0 C4 1 4 1 4 1 Z " fill="#DF004F" transform="translate(165,635)"/>
<path d="M0 0 C4 1 4 1 4 1 Z " fill="#BF0079" transform="translate(161,634)"/>
<path d="M0 0 C4 1 4 1 4 1 Z " fill="#00FFF1" transform="translate(168,501)"/>
<path d="M0 0 C4 1 4 1 4 1 Z " fill="#00F8F8" transform="translate(164,500)"/>
<path d="M0 0 C1 4 1 4 1 4 Z " fill="#E30056" transform="translate(399,490)"/>
<path d="M0 0 C1 4 1 4 1 4 Z " fill="#F1006C" transform="translate(138,475)"/>
<path d="M0 0 C1 4 1 4 1 4 Z " fill="#F10048" transform="translate(137,471)"/>
<path d="M0 0 C1 4 1 4 1 4 Z " fill="#00FFF1" transform="translate(3,468)"/>
<path d="M0 0 C1 4 1 4 1 4 Z " fill="#00FFEF" transform="translate(268,448)"/>
<path d="M0 0 C1 4 1 4 1 4 Z " fill="#FF002E" transform="translate(137,424)"/>
<path d="M0 0 C1 4 1 4 1 4 Z " fill="#00FFEB" transform="translate(3,371)"/>
<path d="M0 0 C4 1 4 1 4 1 Z " fill="#F80056" transform="translate(192,369)"/>
<path d="M0 0 C4 1 4 1 4 1 Z " fill="#F10042" transform="translate(196,368)"/>
<path d="M0 0 C1 4 1 4 1 4 Z " fill="#00FFFF" transform="translate(4,367)"/>
<path d="M0 0 C4 1 4 1 4 1 Z " fill="#FF0043" transform="translate(241,367)"/>
<path d="M0 0 C1 4 1 4 1 4 Z " fill="#00FFEF" transform="translate(5,363)"/>
<path d="M0 0 C4 1 4 1 4 1 Z " fill="#FF0042" transform="translate(500,280)"/>
<path d="M0 0 C4 1 4 1 4 1 Z " fill="#FF004F" transform="translate(491,278)"/>
<path d="M0 0 C4 1 4 1 4 1 Z " fill="#FF0056" transform="translate(487,277)"/>
<path d="M0 0 C4 1 4 1 4 1 Z " fill="#F1006C" transform="translate(480,275)"/>
<path d="M0 0 C4 1 4 1 4 1 Z " fill="#00FFF8" transform="translate(131,229)"/>
<path d="M0 0 C4 1 4 1 4 1 Z " fill="#00FFFF" transform="translate(143,226)"/>
<path d="M0 0 C4 1 4 1 4 1 Z " fill="#FF005E" transform="translate(544,177)"/>
<path d="M0 0 C4 1 4 1 4 1 Z " fill="#00FFF8" transform="translate(488,146)"/>
<path d="M0 0 C4 1 4 1 4 1 Z " fill="#00FFF8" transform="translate(484,145)"/>
<path d="M0 0 C1 4 1 4 1 4 Z " fill="#E30055" transform="translate(410,62)"/>
<path d="M0 0 C3 1 3 1 3 1 Z " fill="#F60035" transform="translate(269,635)"/>
<path d="M0 0 C3 1 3 1 3 1 Z " fill="#ED003E" transform="translate(273,634)"/>
<path d="M0 0 C3 1 3 1 3 1 Z " fill="#FF0047" transform="translate(276,633)"/>
<path d="M0 0 C3 1 3 1 3 1 Z " fill="#AA0050" transform="translate(158,633)"/>
<path d="M0 0 C3 1 3 1 3 1 Z " fill="#FF0047" transform="translate(279,632)"/>
<path d="M0 0 C3 1 3 1 3 1 Z " fill="#FF0047" transform="translate(282,631)"/>
<path d="M0 0 C3 1 3 1 3 1 Z " fill="#FF0076" transform="translate(150,630)"/>
<path d="M0 0 C3 1 3 1 3 1 Z " fill="#AA0047" transform="translate(147,629)"/>
<path d="M0 0 C3 1 3 1 3 1 Z " fill="#FF0025" transform="translate(292,627)"/>
<path d="M0 0 C3 1 3 1 3 1 Z " fill="#AA0058" transform="translate(142,627)"/>
<path d="M0 0 C3 1 3 1 3 1 Z " fill="#AA0076" transform="translate(133,623)"/>
<path d="" fill="#F6004F" transform="translate(0,0)"/>
<path d="" fill="#DA004F" transform="translate(0,0)"/>
<path d="" fill="#D5003E" transform="translate(0,0)"/>
<path d="M0 0 C3 1 3 1 3 1 Z " fill="#00FFF4" transform="translate(212,500)"/>
<path d="M0 0 C3 1 3 1 3 1 Z " fill="#00EDED" transform="translate(215,499)"/>
<path d="M0 0 C3 1 3 1 3 1 Z " fill="#00FFFF" transform="translate(161,499)"/>
<path d="M0 0 C3 1 3 1 3 1 Z " fill="#009B9B" transform="translate(218,498)"/>
<path d="M0 0 C3 1 3 1 3 1 Z " fill="#00FFED" transform="translate(158,498)"/>
<path d="M0 0 C3 1 3 1 3 1 Z " fill="#00FFFF" transform="translate(221,497)"/>
<path d="M0 0 C3 1 3 1 3 1 Z " fill="#00FFFF" transform="translate(155,497)"/>
<path d="" fill="#00FFEA" transform="translate(0,0)"/>
<path d="" fill="#00D7D7" transform="translate(0,0)"/>
<path d="" fill="#00FFF6" transform="translate(0,0)"/>
<path d="" fill="#FF007F" transform="translate(0,0)"/>
<path d="" fill="#00FFE4" transform="translate(0,0)"/>
<path d="M0 0 C3 1 3 1 3 1 Z " fill="#FF0076" transform="translate(183,372)"/>
<path d="M0 0 C3 1 3 1 3 1 Z " fill="#FF0047" transform="translate(186,371)"/>
<path d="M0 0 C3 1 3 1 3 1 Z " fill="#FF003E" transform="translate(189,370)"/>
<path d="" fill="#00FFF3" transform="translate(0,0)"/>
<path d="" fill="#00FFFF" transform="translate(0,0)"/>
<path d="" fill="#00D7D1" transform="translate(0,0)"/>
<path d="" fill="#00FFFF" transform="translate(0,0)"/>
<path d="" fill="#00FFFF" transform="translate(0,0)"/>
<path d="" fill="#00FFEA" transform="translate(0,0)"/>
<path d="" fill="#00FFF6" transform="translate(0,0)"/>
<path d="M0 0 C3 1 3 1 3 1 Z " fill="#D50035" transform="translate(484,276)"/>
<path d="M0 0 C3 1 3 1 3 1 Z " fill="#FF0047" transform="translate(477,274)"/>
<path d="M0 0 C3 1 3 1 3 1 Z " fill="#FF0081" transform="translate(474,273)"/>
<path d="M0 0 C3 1 3 1 3 1 Z " fill="#FF009E" transform="translate(471,272)"/>
<path d="M0 0 C3 1 3 1 3 1 Z " fill="#FF009E" transform="translate(468,271)"/>
<path d="M0 0 C3 1 3 1 3 1 Z " fill="#D5006D" transform="translate(465,270)"/>
<path d="M0 0 C3 1 3 1 3 1 Z " fill="#FF0059" transform="translate(462,269)"/>
<path d="M0 0 C3 1 3 1 3 1 Z " fill="#9B0047" transform="translate(459,268)"/>
<path d="M0 0 C3 1 3 1 3 1 Z " fill="#AA0025" transform="translate(445,262)"/>
<path d="M0 0 C3 1 3 1 3 1 Z " fill="#00FFFF" transform="translate(112,236)"/>
<path d="M0 0 C3 1 3 1 3 1 Z " fill="#00FFFF" transform="translate(117,234)"/>
<path d="M0 0 C3 1 3 1 3 1 Z " fill="#00F3F3" transform="translate(122,232)"/>
<path d="M0 0 C3 1 3 1 3 1 Z " fill="#00F3F3" transform="translate(125,231)"/>
<path d="M0 0 C3 1 3 1 3 1 Z " fill="#00FFFF" transform="translate(128,230)"/>
<path d="M0 0 C3 1 3 1 3 1 Z " fill="#00FFFA" transform="translate(135,228)"/>
<path d="M0 0 C3 1 3 1 3 1 Z " fill="#00FFFF" transform="translate(521,151)"/>
<path d="M0 0 C3 1 3 1 3 1 Z " fill="#00DADA" transform="translate(481,144)"/>
<path d="M0 0 C3 1 3 1 3 1 Z " fill="#00FFF3" transform="translate(478,143)"/>
<path d="M0 0 C3 1 3 1 3 1 Z " fill="#00FFFF" transform="translate(475,142)"/>
<path d="M0 0 C3 1 3 1 3 1 Z " fill="#00FFED" transform="translate(472,141)"/>
<path d="M0 0 C3 1 3 1 3 1 Z " fill="#00FFFF" transform="translate(469,140)"/>
<path d="M0 0 C3 1 3 1 3 1 Z " fill="#00FFFF" transform="translate(464,138)"/>
<path d="" fill="#DA004F" transform="translate(0,0)"/>
<path d="" fill="#FF004F" transform="translate(0,0)"/>
<path d="M0 0 C2 1 2 1 2 1 Z " fill="#FF0078" transform="translate(156,632)"/>
<path d="M0 0 C2 1 2 1 2 1 Z " fill="#F70029" transform="translate(153,631)"/>
<path d="M0 0 C2 1 2 1 2 1 Z " fill="#E9005D" transform="translate(285,630)"/>
<path d="M0 0 C2 1 2 1 2 1 Z " fill="#F70029" transform="translate(288,629)"/>
<path d="M0 0 C2 1 2 1 2 1 Z " fill="#E4006B" transform="translate(290,628)"/>
<path d="M0 0 C2 1 2 1 2 1 Z " fill="#C80029" transform="translate(145,628)"/>
<path d="M0 0 C2 1 2 1 2 1 Z " fill="#FF0028" transform="translate(295,626)"/>
<path d="M0 0 C2 1 2 1 2 1 Z " fill="#F70029" transform="translate(140,626)"/>
<path d="M0 0 C2 1 2 1 2 1 Z " fill="#FF0036" transform="translate(297,625)"/>
<path d="M0 0 C2 1 2 1 2 1 Z " fill="#FF0083" transform="translate(138,625)"/>
<path d="M0 0 C2 1 2 1 2 1 Z " fill="#FF0083" transform="translate(299,624)"/>
<path d="M0 0 C2 1 2 1 2 1 Z " fill="#E4007D" transform="translate(136,624)"/>
<path d="M0 0 C2 1 2 1 2 1 Z " fill="#FF0081" transform="translate(301,623)"/>
<path d="M0 0 C2 1 2 1 2 1 Z " fill="#FF0034" transform="translate(303,622)"/>
<path d="M0 0 C2 1 2 1 2 1 Z " fill="#FF0037" transform="translate(131,622)"/>
<path d="M0 0 C2 1 2 1 2 1 Z " fill="#C80036" transform="translate(305,621)"/>
<path d="M0 0 C2 1 2 1 2 1 Z " fill="#F10028" transform="translate(129,621)"/>
<path d="M0 0 C2 1 2 1 2 1 Z " fill="#FF0028" transform="translate(307,620)"/>
<path d="M0 0 C2 1 2 1 2 1 Z " fill="#F00028" transform="translate(127,620)"/>
<path d="M0 0 C2 1 2 1 2 1 Z " fill="#7F0037" transform="translate(125,619)"/>
<path d="M0 0 C2 1 2 1 2 1 Z " fill="#CA0034" transform="translate(312,617)"/>
<path d="M0 0 C2 1 2 1 2 1 Z " fill="#FF009C" transform="translate(120,616)"/>
<path d="M0 0 C2 1 2 1 2 1 Z " fill="#C80034" transform="translate(118,615)"/>
<path d="M0 0 C2 1 2 1 2 1 Z " fill="#FF0025" transform="translate(317,614)"/>
<path d="M0 0 C2 1 2 1 2 1 Z " fill="#FF0028" transform="translate(116,614)"/>
<path d="M0 0 C2 1 2 1 2 1 Z " fill="#7F0034" transform="translate(320,612)"/>
<path d="M0 0 C2 1 2 1 2 1 Z " fill="#C80050" transform="translate(113,612)"/>
<path d="M0 0 C2 1 2 1 2 1 Z " fill="#7F0028" transform="translate(111,611)"/>
<path d="M0 0 C2 1 2 1 2 1 Z " fill="#C80050" transform="translate(324,609)"/>
<path d="M0 0 C2 1 2 1 2 1 Z " fill="#FF0034" transform="translate(108,609)"/>
<path d="M0 0 C2 1 2 1 2 1 Z " fill="#FF0034" transform="translate(105,607)"/>
<path d="M0 0 C2 1 2 1 2 1 Z " fill="#7F0034" transform="translate(102,605)"/>
<path d="M0 0 C2 1 2 1 2 1 Z " fill="#FF0035" transform="translate(98,602)"/>
<path d="M0 0 C2 1 2 1 2 1 Z " fill="#FF0035" transform="translate(94,599)"/>
<path d="" fill="#FF0082" transform="translate(0,0)"/>
<path d="" fill="#FF0081" transform="translate(0,0)"/>
<path d="" fill="#E40080" transform="translate(0,0)"/>
<path d="" fill="#E40068" transform="translate(0,0)"/>
<path d="" fill="#00FFC9" transform="translate(0,0)"/>
<path d="" fill="#00FFFF" transform="translate(0,0)"/>
<path d="" fill="#00E4E4" transform="translate(0,0)"/>
<path d="M0 0 C2 1 2 1 2 1 Z " fill="#00FFFF" transform="translate(224,496)"/>
<path d="M0 0 C2 1 2 1 2 1 Z " fill="#00FFEE" transform="translate(153,496)"/>
<path d="M0 0 C2 1 2 1 2 1 Z " fill="#00FFFF" transform="translate(226,495)"/>
<path d="M0 0 C2 1 2 1 2 1 Z " fill="#00EEEE" transform="translate(151,495)"/>
<path d="" fill="#00FFEE" transform="translate(0,0)"/>
<path d="M0 0 C2 1 2 1 2 1 Z " fill="#00FFFF" transform="translate(228,494)"/>
<path d="M0 0 C2 1 2 1 2 1 Z " fill="#00FFFF" transform="translate(149,494)"/>
<path d="M0 0 C2 1 2 1 2 1 Z " fill="#00EDEE" transform="translate(230,493)"/>
<path d="M0 0 C2 1 2 1 2 1 Z " fill="#00EEEE" transform="translate(147,493)"/>
<path d="M0 0 C2 1 2 1 2 1 Z " fill="#00FFFF" transform="translate(232,492)"/>
<path d="M0 0 C2 1 2 1 2 1 Z " fill="#00EFEF" transform="translate(145,492)"/>
<path d="M0 0 C2 1 2 1 2 1 Z " fill="#00FFFF" transform="translate(237,489)"/>
<path d="M0 0 C2 1 2 1 2 1 Z " fill="#00FFFF" transform="translate(241,486)"/>
<path d="" fill="#00FFFF" transform="translate(0,0)"/>
<path d="" fill="#E40067" transform="translate(0,0)"/>
<path d="M0 0 C2 1 2 1 2 1 Z " fill="#C80050" transform="translate(165,382)"/>
<path d="M0 0 C2 1 2 1 2 1 Z " fill="#FF0034" transform="translate(168,380)"/>
<path d="M0 0 C2 1 2 1 2 1 Z " fill="#FF009C" transform="translate(171,378)"/>
<path d="M0 0 C2 1 2 1 2 1 Z " fill="#FF0033" transform="translate(173,377)"/>
<path d="M0 0 C2 1 2 1 2 1 Z " fill="#FF0028" transform="translate(175,376)"/>
<path d="M0 0 C2 1 2 1 2 1 Z " fill="#EF0028" transform="translate(177,375)"/>
<path d="M0 0 C2 1 2 1 2 1 Z " fill="#FF0028" transform="translate(179,374)"/>
<path d="M0 0 C2 1 2 1 2 1 Z " fill="#FF0080" transform="translate(181,373)"/>
<path d="" fill="#00FFED" transform="translate(0,0)"/>
<path d="" fill="#00FFEE" transform="translate(0,0)"/>
<path d="" fill="#00FFFF" transform="translate(0,0)"/>
<path d="" fill="#00FFFF" transform="translate(0,0)"/>
<path d="M0 0 C2 1 2 1 2 1 Z " fill="#C50029" transform="translate(457,267)"/>
<path d="M0 0 C2 1 2 1 2 1 Z " fill="#E9006B" transform="translate(455,266)"/>
<path d="M0 0 C2 1 2 1 2 1 Z " fill="#F70029" transform="translate(452,265)"/>
<path d="M0 0 C2 1 2 1 2 1 Z " fill="#FF0083" transform="translate(450,264)"/>
<path d="M0 0 C2 1 2 1 2 1 Z " fill="#E40082" transform="translate(448,263)"/>
<path d="M0 0 C2 1 2 1 2 1 Z " fill="#FF0037" transform="translate(443,261)"/>
<path d="M0 0 C2 1 2 1 2 1 Z " fill="#F10028" transform="translate(441,260)"/>
<path d="M0 0 C2 1 2 1 2 1 Z " fill="#F00028" transform="translate(439,259)"/>
<path d="M0 0 C2 1 2 1 2 1 Z " fill="#EF0028" transform="translate(437,258)"/>
<path d="M0 0 C2 1 2 1 2 1 Z " fill="#00FFFF" transform="translate(75,258)"/>
<path d="M0 0 C2 1 2 1 2 1 Z " fill="#FF0036" transform="translate(435,257)"/>
<path d="M0 0 C2 1 2 1 2 1 Z " fill="#E40035" transform="translate(432,255)"/>
<path d="M0 0 C2 1 2 1 2 1 Z " fill="#00FFFF" transform="translate(79,255)"/>
<path d="M0 0 C2 1 2 1 2 1 Z " fill="#FF009C" transform="translate(430,254)"/>
<path d="M0 0 C2 1 2 1 2 1 Z " fill="#FF0034" transform="translate(428,253)"/>
<path d="M0 0 C2 1 2 1 2 1 Z " fill="#FF00CC" transform="translate(425,251)"/>
<path d="M0 0 C2 1 2 1 2 1 Z " fill="#FF0025" transform="translate(423,250)"/>
<path d="M0 0 C2 1 2 1 2 1 Z " fill="#00FFEE" transform="translate(86,250)"/>
<path d="M0 0 C2 1 2 1 2 1 Z " fill="#00C4C4" transform="translate(88,249)"/>
<path d="M0 0 C2 1 2 1 2 1 Z " fill="#FF0034" transform="translate(420,248)"/>
<path d="M0 0 C2 1 2 1 2 1 Z " fill="#00FFFF" transform="translate(91,247)"/>
<path d="M0 0 C2 1 2 1 2 1 Z " fill="#FF0034" transform="translate(417,246)"/>
<path d="M0 0 C2 1 2 1 2 1 Z " fill="#00FFFF" transform="translate(93,246)"/>
<path d="M0 0 C2 1 2 1 2 1 Z " fill="#00FFEE" transform="translate(96,244)"/>
<path d="M0 0 C2 1 2 1 2 1 Z " fill="#C80050" transform="translate(413,243)"/>
<path d="M0 0 C2 1 2 1 2 1 Z " fill="#00FFFF" transform="translate(98,243)"/>
<path d="M0 0 C2 1 2 1 2 1 Z " fill="#00FFFF" transform="translate(100,242)"/>
<path d="M0 0 C2 1 2 1 2 1 Z " fill="#00FFFF" transform="translate(102,241)"/>
<path d="M0 0 C2 1 2 1 2 1 Z " fill="#CA0050" transform="translate(409,240)"/>
<path d="M0 0 C2 1 2 1 2 1 Z " fill="#00FFFF" transform="translate(104,240)"/>
<path d="M0 0 C2 1 2 1 2 1 Z " fill="#00FFFF" transform="translate(106,239)"/>
<path d="M0 0 C2 1 2 1 2 1 Z " fill="#00FFFF" transform="translate(108,238)"/>
<path d="M0 0 C2 1 2 1 2 1 Z " fill="#00FFED" transform="translate(110,237)"/>
<path d="M0 0 C2 1 2 1 2 1 Z " fill="#00FFFF" transform="translate(115,235)"/>
<path d="M0 0 C2 1 2 1 2 1 Z " fill="#00FFFF" transform="translate(120,233)"/>
<path d="M0 0 C2 1 2 1 2 1 Z " fill="#00FFFF" transform="translate(467,139)"/>
<path d="M0 0 C2 1 2 1 2 1 Z " fill="#00FFFF" transform="translate(462,137)"/>
<path d="M0 0 C2 1 2 1 2 1 Z " fill="#00FFEE" transform="translate(460,136)"/>
<path d="M0 0 C2 1 2 1 2 1 Z " fill="#00FFEE" transform="translate(458,135)"/>
<path d="M0 0 C2 1 2 1 2 1 Z " fill="#00FFFF" transform="translate(456,134)"/>
<path d="M0 0 C2 1 2 1 2 1 Z " fill="#00FFEE" transform="translate(454,133)"/>
<path d="M0 0 C2 1 2 1 2 1 Z " fill="#00FFFF" transform="translate(452,132)"/>
<path d="M0 0 C2 1 2 1 2 1 Z " fill="#00FFFF" transform="translate(450,131)"/>
<path d="M0 0 C2 1 2 1 2 1 Z " fill="#00FFEE" transform="translate(447,129)"/>
<path d="M0 0 C2 1 2 1 2 1 Z " fill="#00FFFF" transform="translate(445,128)"/>
<path d="M0 0 C2 1 2 1 2 1 Z " fill="#00FFFF" transform="translate(442,126)"/>
<path d="M0 0 C2 1 2 1 2 1 Z " fill="#00FFFF" transform="translate(439,124)"/>
<path d="" fill="#FF0082" transform="translate(0,0)"/>
<path d="" fill="#E40067" transform="translate(0,0)"/>
<path d="" fill="#FF0066" transform="translate(0,0)"/>
<path d="" fill="#FF0081" transform="translate(0,0)"/>
<path d="" fill="#E4006B" transform="translate(0,0)"/>
<path d="" fill="#00FFFF" transform="translate(0,0)"/>
<path d="" fill="#FF006D" transform="translate(0,0)"/>
<path d="" fill="#D4006C" transform="translate(0,0)"/>
<path d="" fill="#FF006F" transform="translate(0,0)"/>
<path d="" fill="#FF006A" transform="translate(0,0)"/>
<path d="" fill="#E40046" transform="translate(0,0)"/>
<path d="" fill="#C8006B" transform="translate(0,0)"/>
<path d="" fill="#FF006A" transform="translate(0,0)"/>
<path d="" fill="#D2006C" transform="translate(0,0)"/>
<path d="" fill="#FF0048" transform="translate(0,0)"/>
<path d="" fill="#D4006C" transform="translate(0,0)"/>
<path d="" fill="#FF0069" transform="translate(0,0)"/>
<path d="" fill="#FF006A" transform="translate(0,0)"/>
<path d="" fill="#FF005F" transform="translate(0,0)"/>
<path d="" fill="#C6006A" transform="translate(0,0)"/>
<path d="" fill="#FF006A" transform="translate(0,0)"/>
<path d="" fill="#FF004A" transform="translate(0,0)"/>
<path d="" fill="#FF00A3" transform="translate(0,0)"/>
<path d="" fill="#FF0048" transform="translate(0,0)"/>
<path d="" fill="#C7006B" transform="translate(0,0)"/>
<path d="" fill="#C5006B" transform="translate(0,0)"/>
<path d="" fill="#E2004A" transform="translate(0,0)"/>
<path d="" fill="#FF004A" transform="translate(0,0)"/>
<path d="" fill="#FF004B" transform="translate(0,0)"/>
<path d="" fill="#FF004B" transform="translate(0,0)"/>
<path d="" fill="#FF00A3" transform="translate(0,0)"/>
<path d="" fill="#DF0049" transform="translate(0,0)"/>
<path d="" fill="#FF004A" transform="translate(0,0)"/>
<path d="" fill="#FF00A1" transform="translate(0,0)"/>
<path d="" fill="#FF0066" transform="translate(0,0)"/>
<path d="" fill="#FF004A" transform="translate(0,0)"/>
<path d="" fill="#FF004B" transform="translate(0,0)"/>
<path d="" fill="#FF004B" transform="translate(0,0)"/>
<path d="" fill="#FF004B" transform="translate(0,0)"/>
<path d="" fill="#FF004B" transform="translate(0,0)"/>
<path d="" fill="#FF004A" transform="translate(0,0)"/>
<path d="" fill="#FF0066" transform="translate(0,0)"/>
<path d="" fill="#F0003B" transform="translate(0,0)"/>
<path d="" fill="#E2004A" transform="translate(0,0)"/>
<path d="" fill="#FF004C" transform="translate(0,0)"/>
<path d="" fill="#E3004A" transform="translate(0,0)"/>
<path d="" fill="#C8006B" transform="translate(0,0)"/>
<path d="" fill="#FF004A" transform="translate(0,0)"/>
<path d="" fill="#00FFFF" transform="translate(0,0)"/>
<path d="" fill="#00FFFF" transform="translate(0,0)"/>
<path d="" fill="#00C2C3" transform="translate(0,0)"/>
<path d="" fill="#00FFFF" transform="translate(0,0)"/>
<path d="" fill="#00FFFF" transform="translate(0,0)"/>
<path d="" fill="#00FFFF" transform="translate(0,0)"/>
<path d="" fill="#00FFFF" transform="translate(0,0)"/>
<path d="" fill="#00FFFF" transform="translate(0,0)"/>
<path d="" fill="#00FFFF" transform="translate(0,0)"/>
<path d="" fill="#00FFFF" transform="translate(0,0)"/>
<path d="" fill="#00C1C1" transform="translate(0,0)"/>
<path d="" fill="#00FFFF" transform="translate(0,0)"/>
<path d="" fill="#00DDDD" transform="translate(0,0)"/>
<path d="" fill="#00FFFF" transform="translate(0,0)"/>
<path d="" fill="#00FFFF" transform="translate(0,0)"/>
<path d="" fill="#00FFFF" transform="translate(0,0)"/>
<path d="" fill="#00FFFF" transform="translate(0,0)"/>
<path d="" fill="#00FFFF" transform="translate(0,0)"/>
<path d="" fill="#00C1C2" transform="translate(0,0)"/>
<path d="" fill="#00FFFF" transform="translate(0,0)"/>
<path d="" fill="#00FFFF" transform="translate(0,0)"/>
<path d="" fill="#00FFC1" transform="translate(0,0)"/>
<path d="" fill="#00FFFF" transform="translate(0,0)"/>
<path d="" fill="#00DCDD" transform="translate(0,0)"/>
<path d="" fill="#00FFFF" transform="translate(0,0)"/>
<path d="" fill="#00FFFF" transform="translate(0,0)"/>
<path d="" fill="#FF006A" transform="translate(0,0)"/>
<path d="" fill="#FF0067" transform="translate(0,0)"/>
<path d="" fill="#FF0048" transform="translate(0,0)"/>
<path d="" fill="#FF00A2" transform="translate(0,0)"/>
<path d="" fill="#DE0049" transform="translate(0,0)"/>
<path d="" fill="#FF0048" transform="translate(0,0)"/>
<path d="" fill="#FF0069" transform="translate(0,0)"/>
<path d="" fill="#FF0068" transform="translate(0,0)"/>
<path d="" fill="#00FFE3" transform="translate(0,0)"/>
<path d="" fill="#00FFFF" transform="translate(0,0)"/>
<path d="" fill="#00FFC4" transform="translate(0,0)"/>
<path d="" fill="#00DEE2" transform="translate(0,0)"/>
<path d="" fill="#00F0F3" transform="translate(0,0)"/>
<path d="" fill="#00FFFF" transform="translate(0,0)"/>
<path d="" fill="#00C1C1" transform="translate(0,0)"/>
<path d="" fill="#00FFFF" transform="translate(0,0)"/>
<path d="" fill="#00FFFF" transform="translate(0,0)"/>
<path d="" fill="#00FFFF" transform="translate(0,0)"/>
<path d="" fill="#00FFFF" transform="translate(0,0)"/>
<path d="" fill="#00FFFF" transform="translate(0,0)"/>
<path d="" fill="#00FFFF" transform="translate(0,0)"/>
<path d="" fill="#00FFFF" transform="translate(0,0)"/>
<path d="" fill="#00DCDD" transform="translate(0,0)"/>
<path d="" fill="#00FFFF" transform="translate(0,0)"/>
<path d="" fill="#00FFFF" transform="translate(0,0)"/>
<path d="" fill="#00C1C2" transform="translate(0,0)"/>
<path d="" fill="#00FFFF" transform="translate(0,0)"/>
<path d="" fill="#00FFFF" transform="translate(0,0)"/>
<path d="" fill="#00FFDD" transform="translate(0,0)"/>
<path d="" fill="#FF006E" transform="translate(0,0)"/>
<path d="" fill="#00FFFF" transform="translate(0,0)"/>
<path d="" fill="#00FFDD" transform="translate(0,0)"/>
<path d="" fill="#FF0064" transform="translate(0,0)"/>
<path d="" fill="#00FFFF" transform="translate(0,0)"/>
<path d="" fill="#00FFFF" transform="translate(0,0)"/>
<path d="" fill="#FF006B" transform="translate(0,0)"/>
<path d="" fill="#00FFFF" transform="translate(0,0)"/>
<path d="" fill="#FF006A" transform="translate(0,0)"/>
<path d="" fill="#C6006B" transform="translate(0,0)"/>
<path d="" fill="#00FFFF" transform="translate(0,0)"/>
<path d="" fill="#FF0048" transform="translate(0,0)"/>
<path d="" fill="#FF006A" transform="translate(0,0)"/>
<path d="" fill="#FF0048" transform="translate(0,0)"/>
<path d="" fill="#C9006B" transform="translate(0,0)"/>
<path d="" fill="#FF004A" transform="translate(0,0)"/>
<path d="" fill="#00FFFF" transform="translate(0,0)"/>
<path d="" fill="#00FFFF" transform="translate(0,0)"/>
<path d="" fill="#00FFFF" transform="translate(0,0)"/>
<path d="" fill="#00FFFF" transform="translate(0,0)"/>
<path d="" fill="#00FFFF" transform="translate(0,0)"/>
</svg>
